<svg xmlns="http://www.w3.org/2000/svg" xmlns:xlink="http://www.w3.org/1999/xlink" viewBox="0 0 105.95 106.39"><defs><linearGradient id="New_Gradient_Swatch_2" x1="-13.01" y1="8.42" x2="126.33" y2="8.42" gradientUnits="userSpaceOnUse"><stop offset="0" stop-color="#eeebe9"/><stop offset="0" stop-color="#e7e3e0"/><stop offset="0.06" stop-color="#d8d4d3"/><stop offset="0.19" stop-color="#b2adb0"/><stop offset="0.26" stop-color="#989398"/><stop offset="0.52" stop-color="#bdbdbd"/><stop offset="0.64" stop-color="#b0aeaf"/><stop offset="0.87" stop-color="#8c878a"/><stop offset="0.88" stop-color="#8c878a"/><stop offset="1" stop-color="#dadada"/><stop offset="1" stop-color="#b2b2b2"/></linearGradient><linearGradient id="New_Gradient_Swatch_2-2" x1="-13.01" y1="13.28" x2="126.33" y2="13.28" xlink:href="#New_Gradient_Swatch_2"/><linearGradient id="New_Gradient_Swatch_2-3" x1="-13.01" y1="19.69" x2="126.33" y2="19.69" xlink:href="#New_Gradient_Swatch_2"/><linearGradient id="New_Gradient_Swatch_2-4" x1="-13.01" y1="25.79" x2="126.33" y2="25.79" xlink:href="#New_Gradient_Swatch_2"/><linearGradient id="New_Gradient_Swatch_2-5" x1="-13.01" y1="30.84" x2="126.33" y2="30.84" xlink:href="#New_Gradient_Swatch_2"/><linearGradient id="New_Gradient_Swatch_2-6" x1="-13.01" y1="6.55" x2="126.33" y2="6.55" xlink:href="#New_Gradient_Swatch_2"/><linearGradient id="New_Gradient_Swatch_2-7" x1="-13.01" y1="8.45" x2="126.33" y2="8.45" xlink:href="#New_Gradient_Swatch_2"/><linearGradient id="New_Gradient_Swatch_2-8" x1="-13.01" y1="13.34" x2="126.33" y2="13.34" xlink:href="#New_Gradient_Swatch_2"/><linearGradient id="New_Gradient_Swatch_2-9" x1="-13.01" y1="21.25" x2="126.33" y2="21.25" xlink:href="#New_Gradient_Swatch_2"/><linearGradient id="New_Gradient_Swatch_2-10" x1="-13.01" y1="26.29" x2="126.33" y2="26.29" xlink:href="#New_Gradient_Swatch_2"/><linearGradient id="New_Gradient_Swatch_2-11" x1="-13.01" y1="30.87" x2="126.33" y2="30.87" xlink:href="#New_Gradient_Swatch_2"/><linearGradient id="New_Gradient_Swatch_2-12" x1="-13.01" y1="32.53" x2="126.33" y2="32.53" xlink:href="#New_Gradient_Swatch_2"/><clipPath id="clip-path" transform="translate(0 5.03)"><circle cx="54.58" cy="19.72" r="8.4" fill="none"/></clipPath><linearGradient id="New_Gradient_Swatch_2-13" x1="-13.01" y1="83.67" x2="126.33" y2="83.67" xlink:href="#New_Gradient_Swatch_2"/><clipPath id="clip-path-2" transform="translate(0 5.03)"><path d="M73.57,84.06c1.31-1.85,2.53-3.75,3.82-5.61a32,32,0,0,0,3.18-5.35L80.78,72s-17.24,5.65-17,23.43a21.4,21.4,0,0,0,3-1.7C68.78,90.27,71.31,87.26,73.57,84.06Z" fill="none"/></clipPath><linearGradient id="New_Gradient_Swatch_2-14" x1="-13.01" y1="60.61" x2="126.33" y2="60.61" xlink:href="#New_Gradient_Swatch_2"/><linearGradient id="New_Gradient_Swatch_2-15" x1="-13.01" y1="54.9" x2="126.33" y2="54.9" xlink:href="#New_Gradient_Swatch_2"/><linearGradient id="New_Gradient_Swatch_2-16" x1="-13.01" y1="56.15" x2="126.33" y2="56.15" xlink:href="#New_Gradient_Swatch_2"/><linearGradient id="New_Gradient_Swatch_2-17" x1="-13.01" y1="54" x2="126.33" y2="54" gradientTransform="translate(9.54 -11.62) rotate(9.12)" xlink:href="#New_Gradient_Swatch_2"/><linearGradient id="New_Gradient_Swatch_2-18" x1="-13.01" y1="56.27" x2="126.33" y2="56.27" gradientTransform="translate(110.9 -33.69) rotate(74.36)" xlink:href="#New_Gradient_Swatch_2"/><linearGradient id="New_Gradient_Swatch_2-19" x1="-13.01" y1="61" x2="126.33" y2="61" gradientTransform="translate(36.67 -27.37) rotate(27.59)" xlink:href="#New_Gradient_Swatch_2"/><linearGradient id="New_Gradient_Swatch_2-20" x1="-13.01" y1="59.69" x2="126.33" y2="59.69" gradientTransform="translate(76.81 -36.89) rotate(52.35)" xlink:href="#New_Gradient_Swatch_2"/><linearGradient id="New_Gradient_Swatch_2-21" x1="-13.01" y1="58.16" x2="126.33" y2="58.16" gradientTransform="translate(94.51 -36.84) rotate(63.35)" xlink:href="#New_Gradient_Swatch_2"/><linearGradient id="New_Gradient_Swatch_2-22" x1="-13.01" y1="46.45" x2="126.33" y2="46.45" xlink:href="#New_Gradient_Swatch_2"/><clipPath id="clip-path-3" transform="translate(0 5.03)"><path d="M19.18,16.4c-1.39-1-2.77-2.07-4.12-3.1a6.57,6.57,0,0,0-2.89,2.81A4.72,4.72,0,0,0,12,19.06c.91.61,1.79,1.26,2.66,1.92a4.42,4.42,0,0,0,2.69-1A7.29,7.29,0,0,0,19.18,16.4Z" fill="none"/></clipPath><linearGradient id="New_Gradient_Swatch_2-23" x1="-13.01" y1="15.63" x2="126.33" y2="15.63" gradientTransform="translate(-6.08 13.23) rotate(-37.26)" xlink:href="#New_Gradient_Swatch_2"/><linearGradient id="New_Gradient_Swatch_2-24" x1="-13.01" y1="17.4" x2="126.33" y2="17.4" gradientTransform="translate(-7.43 12.74) rotate(-37.26)" xlink:href="#New_Gradient_Swatch_2"/><linearGradient id="New_Gradient_Swatch_2-25" x1="-13.01" y1="19.19" x2="126.33" y2="19.19" gradientTransform="translate(-8.8 12.29) rotate(-37.26)" xlink:href="#New_Gradient_Swatch_2"/><linearGradient id="New_Gradient_Swatch_2-26" x1="-13.01" y1="8.86" x2="126.33" y2="8.86" xlink:href="#New_Gradient_Swatch_2"/><linearGradient id="New_Gradient_Swatch_2-27" x1="-13.01" y1="35.64" x2="126.33" y2="35.64" xlink:href="#New_Gradient_Swatch_2"/><linearGradient id="New_Gradient_Swatch_2-28" x1="-13.01" y1="31.84" x2="126.33" y2="31.84" xlink:href="#New_Gradient_Swatch_2"/><linearGradient id="New_Gradient_Swatch_2-29" x1="-13.01" y1="29.31" x2="126.33" y2="29.31" xlink:href="#New_Gradient_Swatch_2"/><linearGradient id="New_Gradient_Swatch_2-30" x1="-13.01" y1="39" x2="126.33" y2="39" xlink:href="#New_Gradient_Swatch_2"/><linearGradient id="New_Gradient_Swatch_2-31" x1="-13.01" y1="41.71" x2="126.33" y2="41.71" xlink:href="#New_Gradient_Swatch_2"/><linearGradient id="New_Gradient_Swatch_2-32" x1="-13.01" y1="42.53" x2="126.33" y2="42.53" xlink:href="#New_Gradient_Swatch_2"/><linearGradient id="New_Gradient_Swatch_2-33" x1="-13.01" y1="41.3" x2="126.33" y2="41.3" xlink:href="#New_Gradient_Swatch_2"/><linearGradient id="New_Gradient_Swatch_2-34" x1="-13.01" y1="39.32" x2="126.33" y2="39.32" xlink:href="#New_Gradient_Swatch_2"/><linearGradient id="New_Gradient_Swatch_2-35" x1="-13.01" y1="36.05" x2="126.33" y2="36.05" xlink:href="#New_Gradient_Swatch_2"/><linearGradient id="New_Gradient_Swatch_2-36" x1="-13.01" y1="32.7" x2="126.33" y2="32.7" xlink:href="#New_Gradient_Swatch_2"/><linearGradient id="New_Gradient_Swatch_2-37" x1="-13.01" y1="29.94" x2="126.33" y2="29.94" xlink:href="#New_Gradient_Swatch_2"/><linearGradient id="New_Gradient_Swatch_2-38" x1="-13.01" y1="28.81" x2="126.33" y2="28.81" xlink:href="#New_Gradient_Swatch_2"/><linearGradient id="New_Gradient_Swatch_2-39" x1="-13.01" y1="40.7" x2="126.33" y2="40.7" xlink:href="#New_Gradient_Swatch_2"/><clipPath id="clip-path-4" transform="translate(0 5.03)"><path d="M44.66,56.44V87.55a7,7,0,0,0,7,7V63.47A7,7,0,0,0,44.66,56.44Z" fill="none"/></clipPath><linearGradient id="New_Gradient_Swatch_2-40" x1="-13.01" y1="81.11" x2="126.33" y2="81.11" xlink:href="#New_Gradient_Swatch_2"/><linearGradient id="New_Gradient_Swatch_2-41" x1="-13.01" y1="43.37" x2="126.33" y2="43.37" xlink:href="#New_Gradient_Swatch_2"/><linearGradient id="New_Gradient_Swatch_2-42" x1="-13.01" y1="38.75" x2="126.33" y2="38.75" xlink:href="#New_Gradient_Swatch_2"/><linearGradient id="New_Gradient_Swatch_2-43" x1="-13.01" y1="41.03" x2="126.33" y2="41.03" xlink:href="#New_Gradient_Swatch_2"/><linearGradient id="New_Gradient_Swatch_2-44" x1="-13.01" y1="36.34" x2="126.33" y2="36.34" xlink:href="#New_Gradient_Swatch_2"/><linearGradient id="New_Gradient_Swatch_2-45" x1="-13.01" y1="35.3" x2="126.33" y2="35.3" xlink:href="#New_Gradient_Swatch_2"/><linearGradient id="New_Gradient_Swatch_2-46" x1="-13.01" y1="38.57" x2="126.33" y2="38.57" xlink:href="#New_Gradient_Swatch_2"/><linearGradient id="New_Gradient_Swatch_2-47" x1="-13.01" y1="36.23" x2="126.33" y2="36.23" xlink:href="#New_Gradient_Swatch_2"/><linearGradient id="New_Gradient_Swatch_2-48" x1="-13.01" y1="40.86" x2="126.33" y2="40.86" xlink:href="#New_Gradient_Swatch_2"/><linearGradient id="New_Gradient_Swatch_2-49" x1="-13.01" y1="43.26" x2="126.33" y2="43.26" xlink:href="#New_Gradient_Swatch_2"/><linearGradient id="New_Gradient_Swatch_2-50" x1="-13.01" y1="44.3" x2="126.33" y2="44.3" xlink:href="#New_Gradient_Swatch_2"/><linearGradient id="New_Gradient_Swatch_2-51" x1="-13.01" y1="81.99" x2="126.33" y2="81.99" gradientTransform="translate(72.95 36.92) rotate(59.72)" xlink:href="#New_Gradient_Swatch_2"/><linearGradient id="New_Gradient_Swatch_2-52" x1="-13.01" y1="70.48" x2="126.33" y2="70.48" xlink:href="#New_Gradient_Swatch_2"/><linearGradient id="New_Gradient_Swatch_2-53" x1="-13.01" y1="57.1" x2="126.33" y2="57.1" xlink:href="#New_Gradient_Swatch_2"/><clipPath id="clip-path-5" transform="translate(0 5.03)"><path d="M12.73,57.48c-1.09-1.21-2.12-2.47-3.2-3.69a23,23,0,0,1-2.71-3.57c-.08-.26-.17-.51-.24-.78,0,0,12.79,2.61,14.08,15.35a15.6,15.6,0,0,1-2.32-1A82.63,82.63,0,0,0,12.73,57.48Z" fill="none"/></clipPath><linearGradient id="New_Gradient_Swatch_2-54" x1="-13.01" y1="60.78" x2="126.33" y2="60.78" xlink:href="#New_Gradient_Swatch_2"/><linearGradient id="New_Gradient_Swatch_2-55" x1="-13.01" y1="75.68" x2="126.33" y2="75.68" gradientTransform="translate(52.01 -40.91) rotate(30.28)" xlink:href="#New_Gradient_Swatch_2"/></defs><title>yellow</title><g id="Layer_2" data-name="Layer 2"><g id="Layer_1-2" data-name="Layer 1"><rect x="20.08" y="60.14" width="68.93" height="1.62" transform="translate(-6.51 120.4) rotate(-89.88)" fill="#ffe3a8"/><path d="M65,3.06h0s1.28,10.5-7.51,10.72l0,0h0C54.71,5.43,65,3.06,65,3.06Z" transform="translate(0 5.03)" fill="url(#New_Gradient_Swatch_2)"/><path d="M65,3.07s1.3,10.5-7.49,10.74Z" transform="translate(0 5.03)" fill="#ffe3a8"/><path d="M71,9.27h0S68.76,19.6,60.39,16.9l0,0h0C60.52,8.08,71,9.27,71,9.27Z" transform="translate(0 5.03)" fill="url(#New_Gradient_Swatch_2-2)"/><path d="M71.05,9.28S68.8,19.61,60.42,16.93Z" transform="translate(0 5.03)" fill="#ffe3a8"/><path d="M74.08,19.59h0s-7.77,7.18-13.09.18h0l0,0C66.14,12.61,74.08,19.59,74.08,19.59Z" transform="translate(0 5.03)" fill="url(#New_Gradient_Swatch_2-3)"/><path d="M74.09,19.61S66.33,26.8,61,19.82Z" transform="translate(0 5.03)" fill="#ffe3a8"/><path d="M71.55,29.08h0S61.3,31.71,59.94,23l0,0,0,0C67.87,19.17,71.55,29.08,71.55,29.08Z" transform="translate(0 5.03)" fill="url(#New_Gradient_Swatch_2-4)"/><path d="M71.55,29.1s-10.24,2.65-11.62-6Z" transform="translate(0 5.03)" fill="#ffe3a8"/><path d="M64,36.64h0S54.05,32.94,57.9,25l0,0v0C66.61,26.4,64,36.64,64,36.64Z" transform="translate(0 5.03)" fill="url(#New_Gradient_Swatch_2-5)"/><path d="M64,36.65S54,33,57.87,25.06Z" transform="translate(0 5.03)" fill="#ffe3a8"/><path d="M54.55,0h0s-7,7.88,0,13.09v0l0,0C61.66,7.84,54.55,0,54.55,0Z" transform="translate(0 5.03)" fill="#ffe3a8"/><path d="M54.53,0s-7.07,7.87,0,13.09Z" transform="translate(0 5.03)" fill="url(#New_Gradient_Swatch_2-6)"/><path d="M44.21,3.07h0s-1.28,10.5,7.51,10.72l0,0h0C54.52,5.44,44.21,3.07,44.21,3.07Z" transform="translate(0 5.03)" fill="#ffe3a8"/><path d="M44.2,3.08s-1.31,10.5,7.48,10.74Z" transform="translate(0 5.03)" fill="url(#New_Gradient_Swatch_2-7)"/><path d="M38.2,9.28h0s2.28,10.33,10.64,7.63l0,0h0C48.71,8.1,38.2,9.28,38.2,9.28Z" transform="translate(0 5.03)" fill="#ffe3a8"/><path d="M38.18,9.29s2.26,10.34,10.63,7.65Z" transform="translate(0 5.03)" fill="url(#New_Gradient_Swatch_2-8)"/><path d="M35.15,19.6h0s7.77,7.17,13.09.17h0l0,0C43.1,12.63,35.15,19.6,35.15,19.6Z" transform="translate(0 5.03)" fill="#ffe3a8"/><path d="M35.15,19.62s7.75,7.2,13.09.21Z" transform="translate(0 5.03)" fill="url(#New_Gradient_Swatch_2-9)"/><path d="M37.68,29.09h0S47.93,31.72,49.29,23l0,0,0,0C41.36,19.18,37.68,29.09,37.68,29.09Z" transform="translate(0 5.03)" fill="#ffe3a8"/><path d="M37.69,29.11s10.24,2.65,11.61-6Z" transform="translate(0 5.03)" fill="url(#New_Gradient_Swatch_2-10)"/><path d="M45.27,36.65h0S55.18,33,51.33,25l0,0v0C42.62,26.41,45.27,36.65,45.27,36.65Z" transform="translate(0 5.03)" fill="#ffe3a8"/><path d="M45.28,36.67S55.2,33,51.37,25.07Z" transform="translate(0 5.03)" fill="url(#New_Gradient_Swatch_2-11)"/><path d="M54.63,39.07h0s7-7.88,0-13.09v0l0,0C47.53,31.23,54.63,39.07,54.63,39.07Z" transform="translate(0 5.03)" fill="#ffe3a8"/><path d="M54.65,39.07s7.07-7.87,0-13.09Z" transform="translate(0 5.03)" fill="url(#New_Gradient_Swatch_2-12)"/><circle cx="54.57" cy="24.76" r="9.8" fill="#f6bd00"/><circle cx="54.6" cy="24.74" r="8.4" fill="#ffe3a8"/><g clip-path="url(#clip-path)"><circle cx="56.48" cy="48.15" r="0.38" fill="#f6bd00"/><circle cx="57.64" cy="47.13" r="0.38" fill="#f6bd00"/><circle cx="58.81" cy="46.1" r="0.38" fill="#f6bd00"/><circle cx="59.97" cy="45.07" r="0.38" fill="#f6bd00"/><circle cx="61.14" cy="44.04" r="0.38" fill="#f6bd00"/><circle cx="62.28" cy="42.99" r="0.38" fill="#f6bd00"/><circle cx="63.44" cy="41.96" r="0.38" fill="#f6bd00"/><circle cx="64.61" cy="40.93" r="0.38" fill="#f6bd00"/><circle cx="65.77" cy="39.91" r="0.38" fill="#f6bd00"/><circle cx="66.93" cy="38.88" r="0.38" fill="#f6bd00"/><circle cx="68.1" cy="37.85" r="0.38" fill="#f6bd00"/><circle cx="69.26" cy="36.82" r="0.38" fill="#f6bd00"/><circle cx="70.43" cy="35.8" r="0.38" fill="#f6bd00"/><circle cx="71.57" cy="34.74" r="0.38" fill="#f6bd00"/><circle cx="72.73" cy="33.71" r="0.38" fill="#f6bd00"/><circle cx="73.9" cy="32.69" r="0.38" fill="#f6bd00"/><circle cx="75.06" cy="31.66" r="0.38" fill="#f6bd00"/><circle cx="55.56" cy="47.11" r="0.38" fill="#f6bd00"/><circle cx="56.72" cy="46.08" r="0.38" fill="#f6bd00"/><circle cx="57.89" cy="45.06" r="0.38" fill="#f6bd00"/><circle cx="59.05" cy="44.03" r="0.38" fill="#f6bd00"/><circle cx="60.22" cy="43" r="0.38" fill="#f6bd00"/><circle cx="61.36" cy="41.95" r="0.38" fill="#f6bd00"/><circle cx="62.52" cy="40.92" r="0.38" fill="#f6bd00"/><circle cx="63.69" cy="39.89" r="0.38" fill="#f6bd00"/><circle cx="64.85" cy="38.86" r="0.38" fill="#f6bd00"/><circle cx="66.02" cy="37.84" r="0.38" fill="#f6bd00"/><circle cx="67.18" cy="36.81" r="0.38" fill="#f6bd00"/><circle cx="68.35" cy="35.78" r="0.38" fill="#f6bd00"/><circle cx="69.51" cy="34.76" r="0.38" fill="#f6bd00"/><circle cx="70.65" cy="33.7" r="0.38" fill="#f6bd00"/><circle cx="71.81" cy="32.67" r="0.38" fill="#f6bd00"/><circle cx="72.98" cy="31.64" r="0.38" fill="#f6bd00"/><circle cx="74.14" cy="30.62" r="0.38" fill="#f6bd00"/><circle cx="54.61" cy="46.06" r="0.38" fill="#f6bd00"/><circle cx="55.78" cy="45.03" r="0.38" fill="#f6bd00"/><circle cx="56.94" cy="44.01" r="0.38" fill="#f6bd00"/><circle cx="58.11" cy="42.98" r="0.38" fill="#f6bd00"/><circle cx="59.27" cy="41.95" r="0.38" fill="#f6bd00"/><circle cx="60.41" cy="40.89" r="0.38" fill="#f6bd00"/><circle cx="61.58" cy="39.87" r="0.38" fill="#f6bd00"/><circle cx="62.74" cy="38.84" r="0.38" fill="#f6bd00"/><circle cx="63.91" cy="37.81" r="0.38" fill="#f6bd00"/><circle cx="65.07" cy="36.79" r="0.38" fill="#f6bd00"/><circle cx="66.24" cy="35.76" r="0.38" fill="#f6bd00"/><circle cx="67.4" cy="34.73" r="0.38" fill="#f6bd00"/><circle cx="68.56" cy="33.7" r="0.38" fill="#f6bd00"/><circle cx="69.7" cy="32.65" r="0.38" fill="#f6bd00"/><circle cx="70.87" cy="31.62" r="0.38" fill="#f6bd00"/><circle cx="72.03" cy="30.59" r="0.38" fill="#f6bd00"/><circle cx="73.2" cy="29.57" r="0.38" fill="#f6bd00"/><circle cx="53.7" cy="45.02" r="0.38" fill="#f6bd00"/><circle cx="54.86" cy="43.99" r="0.38" fill="#f6bd00"/><circle cx="56.03" cy="42.96" r="0.38" fill="#f6bd00"/><circle cx="57.19" cy="41.94" r="0.38" fill="#f6bd00"/><circle cx="58.35" cy="40.91" r="0.38" fill="#f6bd00"/><circle cx="59.49" cy="39.85" r="0.38" fill="#f6bd00"/><circle cx="60.66" cy="38.83" r="0.38" fill="#f6bd00"/><circle cx="61.82" cy="37.8" r="0.38" fill="#f6bd00"/><circle cx="62.99" cy="36.77" r="0.38" fill="#f6bd00"/><circle cx="64.15" cy="35.74" r="0.38" fill="#f6bd00"/><circle cx="65.32" cy="34.72" r="0.38" fill="#f6bd00"/><circle cx="66.48" cy="33.69" r="0.38" fill="#f6bd00"/><circle cx="67.65" cy="32.66" r="0.38" fill="#f6bd00"/><circle cx="68.79" cy="31.61" r="0.38" fill="#f6bd00"/><circle cx="69.95" cy="30.58" r="0.38" fill="#f6bd00"/><circle cx="71.11" cy="29.55" r="0.38" fill="#f6bd00"/><circle cx="72.28" cy="28.52" r="0.38" fill="#f6bd00"/><circle cx="52.75" cy="43.93" r="0.38" fill="#f6bd00"/><circle cx="53.92" cy="42.9" r="0.38" fill="#f6bd00"/><circle cx="55.08" cy="41.88" r="0.38" fill="#f6bd00"/><circle cx="56.25" cy="40.85" r="0.38" fill="#f6bd00"/><circle cx="57.41" cy="39.82" r="0.38" fill="#f6bd00"/><circle cx="58.55" cy="38.77" r="0.38" fill="#f6bd00"/><circle cx="59.72" cy="37.74" r="0.38" fill="#f6bd00"/><circle cx="60.88" cy="36.71" r="0.38" fill="#f6bd00"/><circle cx="62.04" cy="35.68" r="0.38" fill="#f6bd00"/><circle cx="63.21" cy="34.66" r="0.38" fill="#f6bd00"/><circle cx="64.37" cy="33.63" r="0.38" fill="#f6bd00"/><circle cx="65.54" cy="32.6" r="0.38" fill="#f6bd00"/><circle cx="66.7" cy="31.57" r="0.38" fill="#f6bd00"/><circle cx="67.84" cy="30.52" r="0.38" fill="#f6bd00"/><circle cx="69.01" cy="29.49" r="0.38" fill="#f6bd00"/><circle cx="70.17" cy="28.46" r="0.38" fill="#f6bd00"/><circle cx="71.34" cy="27.44" r="0.38" fill="#f6bd00"/><circle cx="51.83" cy="42.89" r="0.38" fill="#f6bd00"/><circle cx="53" cy="41.86" r="0.38" fill="#f6bd00"/><circle cx="54.16" cy="40.83" r="0.38" fill="#f6bd00"/><circle cx="55.33" cy="39.81" r="0.38" fill="#f6bd00"/><circle cx="56.49" cy="38.78" r="0.38" fill="#f6bd00"/><circle cx="57.63" cy="37.72" r="0.38" fill="#f6bd00"/><circle cx="58.8" cy="36.7" r="0.38" fill="#f6bd00"/><circle cx="59.96" cy="35.67" r="0.38" fill="#f6bd00"/><circle cx="61.13" cy="34.64" r="0.38" fill="#f6bd00"/><circle cx="62.29" cy="33.61" r="0.38" fill="#f6bd00"/><circle cx="63.46" cy="32.59" r="0.38" fill="#f6bd00"/><circle cx="64.62" cy="31.56" r="0.38" fill="#f6bd00"/><circle cx="65.78" cy="30.53" r="0.38" fill="#f6bd00"/><circle cx="66.92" cy="29.48" r="0.38" fill="#f6bd00"/><circle cx="68.09" cy="28.45" r="0.38" fill="#f6bd00"/><circle cx="69.25" cy="27.42" r="0.38" fill="#f6bd00"/><circle cx="70.42" cy="26.39" r="0.38" fill="#f6bd00"/><circle cx="50.89" cy="41.84" r="0.38" fill="#f6bd00"/><circle cx="52.05" cy="40.81" r="0.38" fill="#f6bd00"/><circle cx="53.22" cy="39.78" r="0.38" fill="#f6bd00"/><circle cx="54.38" cy="38.76" r="0.38" fill="#f6bd00"/><circle cx="55.55" cy="37.73" r="0.38" fill="#f6bd00"/><circle cx="56.69" cy="36.67" r="0.38" fill="#f6bd00"/><circle cx="57.85" cy="35.64" r="0.38" fill="#f6bd00"/><circle cx="59.02" cy="34.62" r="0.38" fill="#f6bd00"/><circle cx="60.18" cy="33.59" r="0.38" fill="#f6bd00"/><circle cx="61.35" cy="32.56" r="0.38" fill="#f6bd00"/><circle cx="62.51" cy="31.54" r="0.38" fill="#f6bd00"/><circle cx="63.67" cy="30.51" r="0.38" fill="#f6bd00"/><circle cx="64.84" cy="29.48" r="0.38" fill="#f6bd00"/><circle cx="65.98" cy="28.42" r="0.38" fill="#f6bd00"/><circle cx="67.14" cy="27.4" r="0.38" fill="#f6bd00"/><circle cx="68.31" cy="26.37" r="0.38" fill="#f6bd00"/><circle cx="69.47" cy="25.34" r="0.38" fill="#f6bd00"/><circle cx="49.97" cy="40.8" r="0.38" fill="#f6bd00"/><circle cx="51.14" cy="39.77" r="0.38" fill="#f6bd00"/><circle cx="52.3" cy="38.74" r="0.38" fill="#f6bd00"/><circle cx="53.46" cy="37.71" r="0.38" fill="#f6bd00"/><circle cx="54.63" cy="36.69" r="0.38" fill="#f6bd00"/><circle cx="55.77" cy="35.63" r="0.38" fill="#f6bd00"/><circle cx="56.93" cy="34.6" r="0.38" fill="#f6bd00"/><circle cx="58.1" cy="33.58" r="0.38" fill="#f6bd00"/><circle cx="59.26" cy="32.55" r="0.38" fill="#f6bd00"/><circle cx="60.43" cy="31.52" r="0.38" fill="#f6bd00"/><circle cx="61.59" cy="30.49" r="0.38" fill="#f6bd00"/><circle cx="62.76" cy="29.47" r="0.38" fill="#f6bd00"/><circle cx="63.92" cy="28.44" r="0.38" fill="#f6bd00"/><circle cx="65.06" cy="27.38" r="0.38" fill="#f6bd00"/><circle cx="66.22" cy="26.36" r="0.38" fill="#f6bd00"/><circle cx="67.39" cy="25.33" r="0.38" fill="#f6bd00"/><circle cx="68.55" cy="24.3" r="0.38" fill="#f6bd00"/><circle cx="49" cy="39.7" r="0.38" fill="#f6bd00"/><circle cx="50.17" cy="38.67" r="0.38" fill="#f6bd00"/><circle cx="51.33" cy="37.64" r="0.38" fill="#f6bd00"/><circle cx="52.5" cy="36.62" r="0.38" fill="#f6bd00"/><circle cx="53.66" cy="35.59" r="0.38" fill="#f6bd00"/><circle cx="54.8" cy="34.53" r="0.38" fill="#f6bd00"/><circle cx="55.96" cy="33.5" r="0.38" fill="#f6bd00"/><circle cx="57.13" cy="32.48" r="0.38" fill="#f6bd00"/><circle cx="58.29" cy="31.45" r="0.38" fill="#f6bd00"/><circle cx="59.46" cy="30.42" r="0.38" fill="#f6bd00"/><circle cx="60.62" cy="29.4" r="0.38" fill="#f6bd00"/><circle cx="61.79" cy="28.37" r="0.38" fill="#f6bd00"/><circle cx="62.95" cy="27.34" r="0.38" fill="#f6bd00"/><circle cx="64.09" cy="26.28" r="0.38" fill="#f6bd00"/><circle cx="65.26" cy="25.26" r="0.38" fill="#f6bd00"/><circle cx="66.42" cy="24.23" r="0.38" fill="#f6bd00"/><circle cx="67.58" cy="23.2" r="0.38" fill="#f6bd00"/><circle cx="48.08" cy="38.66" r="0.38" fill="#f6bd00"/><circle cx="49.25" cy="37.63" r="0.38" fill="#f6bd00"/><circle cx="50.41" cy="36.6" r="0.38" fill="#f6bd00"/><circle cx="51.58" cy="35.57" r="0.38" fill="#f6bd00"/><circle cx="52.74" cy="34.55" r="0.38" fill="#f6bd00"/><circle cx="53.88" cy="33.49" r="0.38" fill="#f6bd00"/><circle cx="55.05" cy="32.46" r="0.38" fill="#f6bd00"/><circle cx="56.21" cy="31.44" r="0.38" fill="#f6bd00"/><circle cx="57.37" cy="30.41" r="0.38" fill="#f6bd00"/><circle cx="58.54" cy="29.38" r="0.38" fill="#f6bd00"/><circle cx="59.7" cy="28.35" r="0.38" fill="#f6bd00"/><circle cx="60.87" cy="27.33" r="0.38" fill="#f6bd00"/><circle cx="62.03" cy="26.3" r="0.38" fill="#f6bd00"/><circle cx="63.17" cy="25.24" r="0.38" fill="#f6bd00"/><circle cx="64.34" cy="24.22" r="0.38" fill="#f6bd00"/><circle cx="65.5" cy="23.19" r="0.38" fill="#f6bd00"/><circle cx="66.67" cy="22.16" r="0.38" fill="#f6bd00"/><circle cx="47.14" cy="37.6" r="0.38" fill="#f6bd00"/><circle cx="48.3" cy="36.58" r="0.38" fill="#f6bd00"/><circle cx="49.47" cy="35.55" r="0.38" fill="#f6bd00"/><circle cx="50.63" cy="34.52" r="0.38" fill="#f6bd00"/><circle cx="51.8" cy="33.49" r="0.38" fill="#f6bd00"/><circle cx="52.94" cy="32.44" r="0.38" fill="#f6bd00"/><circle cx="54.1" cy="31.41" r="0.38" fill="#f6bd00"/><circle cx="55.27" cy="30.38" r="0.38" fill="#f6bd00"/><circle cx="56.43" cy="29.36" r="0.38" fill="#f6bd00"/><circle cx="57.59" cy="28.33" r="0.38" fill="#f6bd00"/><circle cx="58.76" cy="27.3" r="0.38" fill="#f6bd00"/><circle cx="59.92" cy="26.27" r="0.38" fill="#f6bd00"/><circle cx="61.09" cy="25.25" r="0.38" fill="#f6bd00"/><circle cx="62.23" cy="24.19" r="0.38" fill="#f6bd00"/><circle cx="63.39" cy="23.16" r="0.38" fill="#f6bd00"/><circle cx="64.56" cy="22.14" r="0.38" fill="#f6bd00"/><circle cx="65.72" cy="21.11" r="0.38" fill="#f6bd00"/><circle cx="46.22" cy="36.56" r="0.38" fill="#f6bd00"/><circle cx="47.38" cy="35.54" r="0.38" fill="#f6bd00"/><circle cx="48.55" cy="34.51" r="0.38" fill="#f6bd00"/><circle cx="49.71" cy="33.48" r="0.38" fill="#f6bd00"/><circle cx="50.88" cy="32.45" r="0.38" fill="#f6bd00"/><circle cx="52.02" cy="31.4" r="0.38" fill="#f6bd00"/><circle cx="53.18" cy="30.37" r="0.38" fill="#f6bd00"/><circle cx="54.35" cy="29.34" r="0.38" fill="#f6bd00"/><circle cx="55.51" cy="28.32" r="0.38" fill="#f6bd00"/><circle cx="56.68" cy="27.29" r="0.38" fill="#f6bd00"/><circle cx="57.84" cy="26.26" r="0.38" fill="#f6bd00"/><circle cx="59" cy="25.23" r="0.38" fill="#f6bd00"/><circle cx="60.17" cy="24.21" r="0.38" fill="#f6bd00"/><circle cx="61.31" cy="23.15" r="0.38" fill="#f6bd00"/><circle cx="62.47" cy="22.12" r="0.38" fill="#f6bd00"/><circle cx="63.64" cy="21.09" r="0.38" fill="#f6bd00"/><circle cx="64.8" cy="20.07" r="0.38" fill="#f6bd00"/><circle cx="45.35" cy="35.58" r="0.38" fill="#f6bd00"/><circle cx="46.52" cy="34.55" r="0.38" fill="#f6bd00"/><circle cx="47.68" cy="33.52" r="0.38" fill="#f6bd00"/><circle cx="48.84" cy="32.5" r="0.38" fill="#f6bd00"/><circle cx="50.01" cy="31.47" r="0.38" fill="#f6bd00"/><circle cx="51.15" cy="30.41" r="0.38" fill="#f6bd00"/><circle cx="52.31" cy="29.39" r="0.38" fill="#f6bd00"/><circle cx="53.48" cy="28.36" r="0.38" fill="#f6bd00"/><circle cx="54.64" cy="27.33" r="0.38" fill="#f6bd00"/><circle cx="55.81" cy="26.3" r="0.38" fill="#f6bd00"/><circle cx="56.97" cy="25.28" r="0.38" fill="#f6bd00"/><circle cx="58.14" cy="24.25" r="0.38" fill="#f6bd00"/><circle cx="59.3" cy="23.22" r="0.38" fill="#f6bd00"/><circle cx="60.44" cy="22.17" r="0.38" fill="#f6bd00"/><circle cx="61.6" cy="21.14" r="0.38" fill="#f6bd00"/><circle cx="62.77" cy="20.11" r="0.38" fill="#f6bd00"/><circle cx="63.93" cy="19.08" r="0.38" fill="#f6bd00"/><circle cx="44.43" cy="34.54" r="0.38" fill="#f6bd00"/><circle cx="45.6" cy="33.51" r="0.38" fill="#f6bd00"/><circle cx="46.76" cy="32.48" r="0.38" fill="#f6bd00"/><circle cx="47.93" cy="31.45" r="0.38" fill="#f6bd00"/><circle cx="49.09" cy="30.43" r="0.38" fill="#f6bd00"/><circle cx="50.23" cy="29.37" r="0.38" fill="#f6bd00"/><circle cx="51.39" cy="28.34" r="0.38" fill="#f6bd00"/><circle cx="52.56" cy="27.32" r="0.38" fill="#f6bd00"/><circle cx="53.72" cy="26.29" r="0.38" fill="#f6bd00"/><circle cx="54.89" cy="25.26" r="0.38" fill="#f6bd00"/><circle cx="56.05" cy="24.23" r="0.38" fill="#f6bd00"/><circle cx="57.22" cy="23.21" r="0.38" fill="#f6bd00"/><circle cx="58.38" cy="22.18" r="0.38" fill="#f6bd00"/><circle cx="59.52" cy="21.12" r="0.38" fill="#f6bd00"/><circle cx="60.69" cy="20.1" r="0.38" fill="#f6bd00"/><circle cx="61.85" cy="19.07" r="0.38" fill="#f6bd00"/><circle cx="63.01" cy="18.04" r="0.38" fill="#f6bd00"/><circle cx="43.58" cy="33.57" r="0.38" fill="#f6bd00"/><circle cx="44.74" cy="32.54" r="0.38" fill="#f6bd00"/><circle cx="45.91" cy="31.51" r="0.38" fill="#f6bd00"/><circle cx="47.07" cy="30.49" r="0.38" fill="#f6bd00"/><circle cx="48.24" cy="29.46" r="0.38" fill="#f6bd00"/><circle cx="49.38" cy="28.4" r="0.38" fill="#f6bd00"/><circle cx="50.54" cy="27.38" r="0.38" fill="#f6bd00"/><circle cx="51.7" cy="26.35" r="0.38" fill="#f6bd00"/><circle cx="52.87" cy="25.32" r="0.38" fill="#f6bd00"/><circle cx="54.03" cy="24.29" r="0.38" fill="#f6bd00"/><circle cx="55.2" cy="23.27" r="0.38" fill="#f6bd00"/><circle cx="56.36" cy="22.24" r="0.38" fill="#f6bd00"/><circle cx="57.53" cy="21.21" r="0.38" fill="#f6bd00"/><circle cx="58.67" cy="20.16" r="0.38" fill="#f6bd00"/><circle cx="59.83" cy="19.13" r="0.38" fill="#f6bd00"/><circle cx="61" cy="18.1" r="0.38" fill="#f6bd00"/><circle cx="62.16" cy="17.07" r="0.38" fill="#f6bd00"/><circle cx="42.66" cy="32.53" r="0.38" fill="#f6bd00"/><circle cx="43.82" cy="31.5" r="0.38" fill="#f6bd00"/><circle cx="44.99" cy="30.47" r="0.38" fill="#f6bd00"/><circle cx="46.15" cy="29.44" r="0.38" fill="#f6bd00"/><circle cx="47.32" cy="28.42" r="0.38" fill="#f6bd00"/><circle cx="48.46" cy="27.36" r="0.38" fill="#f6bd00"/><circle cx="49.62" cy="26.33" r="0.38" fill="#f6bd00"/><circle cx="50.79" cy="25.31" r="0.38" fill="#f6bd00"/><circle cx="51.95" cy="24.28" r="0.38" fill="#f6bd00"/><circle cx="53.11" cy="23.25" r="0.38" fill="#f6bd00"/><circle cx="54.28" cy="22.22" r="0.38" fill="#f6bd00"/><circle cx="55.44" cy="21.2" r="0.38" fill="#f6bd00"/><circle cx="56.61" cy="20.17" r="0.38" fill="#f6bd00"/><circle cx="57.75" cy="19.11" r="0.38" fill="#f6bd00"/><circle cx="58.91" cy="18.09" r="0.38" fill="#f6bd00"/><circle cx="60.08" cy="17.06" r="0.38" fill="#f6bd00"/><circle cx="61.24" cy="16.03" r="0.38" fill="#f6bd00"/><circle cx="41.71" cy="31.47" r="0.38" fill="#f6bd00"/><circle cx="42.88" cy="30.45" r="0.38" fill="#f6bd00"/><circle cx="44.04" cy="29.42" r="0.38" fill="#f6bd00"/><circle cx="45.21" cy="28.39" r="0.38" fill="#f6bd00"/><circle cx="46.37" cy="27.37" r="0.38" fill="#f6bd00"/><circle cx="47.51" cy="26.31" r="0.38" fill="#f6bd00"/><circle cx="48.68" cy="25.28" r="0.38" fill="#f6bd00"/><circle cx="49.84" cy="24.25" r="0.38" fill="#f6bd00"/><circle cx="51.01" cy="23.23" r="0.38" fill="#f6bd00"/><circle cx="52.17" cy="22.2" r="0.38" fill="#f6bd00"/><circle cx="53.33" cy="21.17" r="0.38" fill="#f6bd00"/><circle cx="54.5" cy="20.14" r="0.38" fill="#f6bd00"/><circle cx="55.66" cy="19.12" r="0.38" fill="#f6bd00"/><circle cx="56.8" cy="18.06" r="0.38" fill="#f6bd00"/><circle cx="57.97" cy="17.03" r="0.38" fill="#f6bd00"/><circle cx="59.13" cy="16.01" r="0.38" fill="#f6bd00"/><circle cx="60.3" cy="14.98" r="0.38" fill="#f6bd00"/><circle cx="40.79" cy="30.43" r="0.38" fill="#f6bd00"/><circle cx="41.96" cy="29.41" r="0.38" fill="#f6bd00"/><circle cx="43.12" cy="28.38" r="0.38" fill="#f6bd00"/><circle cx="44.29" cy="27.35" r="0.38" fill="#f6bd00"/><circle cx="45.45" cy="26.32" r="0.38" fill="#f6bd00"/><circle cx="46.59" cy="25.27" r="0.38" fill="#f6bd00"/><circle cx="47.76" cy="24.24" r="0.38" fill="#f6bd00"/><circle cx="48.92" cy="23.21" r="0.38" fill="#f6bd00"/><circle cx="50.09" cy="22.19" r="0.38" fill="#f6bd00"/><circle cx="51.25" cy="21.16" r="0.38" fill="#f6bd00"/><circle cx="52.42" cy="20.13" r="0.38" fill="#f6bd00"/><circle cx="53.58" cy="19.1" r="0.38" fill="#f6bd00"/><circle cx="54.74" cy="18.08" r="0.38" fill="#f6bd00"/><circle cx="55.88" cy="17.02" r="0.38" fill="#f6bd00"/><circle cx="57.05" cy="15.99" r="0.38" fill="#f6bd00"/><circle cx="58.21" cy="14.97" r="0.38" fill="#f6bd00"/><circle cx="59.38" cy="13.94" r="0.38" fill="#f6bd00"/><circle cx="39.85" cy="29.35" r="0.38" fill="#f6bd00"/><circle cx="41.02" cy="28.32" r="0.38" fill="#f6bd00"/><circle cx="42.18" cy="27.29" r="0.38" fill="#f6bd00"/><circle cx="43.35" cy="26.26" r="0.38" fill="#f6bd00"/><circle cx="44.51" cy="25.24" r="0.38" fill="#f6bd00"/><circle cx="45.65" cy="24.18" r="0.38" fill="#f6bd00"/><circle cx="46.81" cy="23.15" r="0.38" fill="#f6bd00"/><circle cx="47.98" cy="22.13" r="0.38" fill="#f6bd00"/><circle cx="49.14" cy="21.1" r="0.38" fill="#f6bd00"/><circle cx="50.31" cy="20.07" r="0.38" fill="#f6bd00"/><circle cx="51.47" cy="19.04" r="0.38" fill="#f6bd00"/><circle cx="52.64" cy="18.02" r="0.38" fill="#f6bd00"/><circle cx="53.8" cy="16.99" r="0.38" fill="#f6bd00"/><circle cx="54.94" cy="15.93" r="0.38" fill="#f6bd00"/><circle cx="56.11" cy="14.91" r="0.38" fill="#f6bd00"/><circle cx="57.27" cy="13.88" r="0.38" fill="#f6bd00"/><circle cx="58.44" cy="12.85" r="0.38" fill="#f6bd00"/><circle cx="38.93" cy="28.3" r="0.38" fill="#f6bd00"/><circle cx="40.1" cy="27.28" r="0.38" fill="#f6bd00"/><circle cx="41.26" cy="26.25" r="0.38" fill="#f6bd00"/><circle cx="42.43" cy="25.22" r="0.38" fill="#f6bd00"/><circle cx="43.59" cy="24.19" r="0.38" fill="#f6bd00"/><circle cx="44.73" cy="23.14" r="0.38" fill="#f6bd00"/><circle cx="45.9" cy="22.11" r="0.38" fill="#f6bd00"/><circle cx="47.06" cy="21.08" r="0.38" fill="#f6bd00"/><circle cx="48.22" cy="20.06" r="0.38" fill="#f6bd00"/><circle cx="49.39" cy="19.03" r="0.38" fill="#f6bd00"/><circle cx="50.55" cy="18" r="0.38" fill="#f6bd00"/><circle cx="51.72" cy="16.97" r="0.38" fill="#f6bd00"/><circle cx="52.88" cy="15.95" r="0.38" fill="#f6bd00"/><circle cx="54.02" cy="14.89" r="0.38" fill="#f6bd00"/><circle cx="55.19" cy="13.86" r="0.38" fill="#f6bd00"/><circle cx="56.35" cy="12.84" r="0.38" fill="#f6bd00"/><circle cx="57.52" cy="11.81" r="0.38" fill="#f6bd00"/><circle cx="37.99" cy="27.25" r="0.38" fill="#f6bd00"/><circle cx="39.15" cy="26.22" r="0.38" fill="#f6bd00"/><circle cx="40.32" cy="25.2" r="0.38" fill="#f6bd00"/><circle cx="41.48" cy="24.17" r="0.38" fill="#f6bd00"/><circle cx="42.65" cy="23.14" r="0.38" fill="#f6bd00"/><circle cx="43.79" cy="22.09" r="0.38" fill="#f6bd00"/><circle cx="44.95" cy="21.06" r="0.38" fill="#f6bd00"/><circle cx="46.12" cy="20.03" r="0.38" fill="#f6bd00"/><circle cx="47.28" cy="19" r="0.38" fill="#f6bd00"/><circle cx="48.44" cy="17.98" r="0.38" fill="#f6bd00"/><circle cx="49.61" cy="16.95" r="0.38" fill="#f6bd00"/><circle cx="50.77" cy="15.92" r="0.38" fill="#f6bd00"/><circle cx="51.94" cy="14.89" r="0.38" fill="#f6bd00"/><circle cx="53.08" cy="13.84" r="0.38" fill="#f6bd00"/><circle cx="54.24" cy="12.81" r="0.38" fill="#f6bd00"/><circle cx="55.41" cy="11.78" r="0.38" fill="#f6bd00"/><circle cx="56.57" cy="10.76" r="0.38" fill="#f6bd00"/><circle cx="37.07" cy="26.21" r="0.38" fill="#f6bd00"/><circle cx="38.23" cy="25.18" r="0.38" fill="#f6bd00"/><circle cx="39.4" cy="24.16" r="0.38" fill="#f6bd00"/><circle cx="40.56" cy="23.13" r="0.38" fill="#f6bd00"/><circle cx="41.73" cy="22.1" r="0.38" fill="#f6bd00"/><circle cx="42.87" cy="21.04" r="0.38" fill="#f6bd00"/><circle cx="44.03" cy="20.02" r="0.38" fill="#f6bd00"/><circle cx="45.2" cy="18.99" r="0.38" fill="#f6bd00"/><circle cx="46.36" cy="17.96" r="0.38" fill="#f6bd00"/><circle cx="47.53" cy="16.94" r="0.38" fill="#f6bd00"/><circle cx="48.69" cy="15.91" r="0.38" fill="#f6bd00"/><circle cx="49.85" cy="14.88" r="0.38" fill="#f6bd00"/><circle cx="51.02" cy="13.85" r="0.38" fill="#f6bd00"/><circle cx="52.16" cy="12.8" r="0.38" fill="#f6bd00"/><circle cx="53.32" cy="11.77" r="0.38" fill="#f6bd00"/><circle cx="54.49" cy="10.74" r="0.38" fill="#f6bd00"/><circle cx="55.65" cy="9.72" r="0.38" fill="#f6bd00"/><circle cx="36.1" cy="25.11" r="0.38" fill="#f6bd00"/><circle cx="37.27" cy="24.08" r="0.38" fill="#f6bd00"/><circle cx="38.43" cy="23.06" r="0.38" fill="#f6bd00"/><circle cx="39.59" cy="22.03" r="0.38" fill="#f6bd00"/><circle cx="40.76" cy="21" r="0.38" fill="#f6bd00"/><circle cx="41.9" cy="19.95" r="0.38" fill="#f6bd00"/><circle cx="43.06" cy="18.92" r="0.38" fill="#f6bd00"/><circle cx="44.23" cy="17.89" r="0.38" fill="#f6bd00"/><circle cx="45.39" cy="16.86" r="0.38" fill="#f6bd00"/><circle cx="46.56" cy="15.84" r="0.38" fill="#f6bd00"/><circle cx="47.72" cy="14.81" r="0.38" fill="#f6bd00"/><circle cx="48.89" cy="13.78" r="0.38" fill="#f6bd00"/><circle cx="50.05" cy="12.76" r="0.38" fill="#f6bd00"/><circle cx="51.19" cy="11.7" r="0.38" fill="#f6bd00"/><circle cx="52.35" cy="10.67" r="0.38" fill="#f6bd00"/><circle cx="53.52" cy="9.64" r="0.38" fill="#f6bd00"/><circle cx="54.68" cy="8.62" r="0.38" fill="#f6bd00"/><circle cx="35.18" cy="24.07" r="0.38" fill="#f6bd00"/><circle cx="36.35" cy="23.04" r="0.38" fill="#f6bd00"/><circle cx="37.51" cy="22.02" r="0.38" fill="#f6bd00"/><circle cx="38.68" cy="20.99" r="0.38" fill="#f6bd00"/><circle cx="39.84" cy="19.96" r="0.38" fill="#f6bd00"/><circle cx="40.98" cy="18.91" r="0.38" fill="#f6bd00"/><circle cx="42.14" cy="17.88" r="0.38" fill="#f6bd00"/><circle cx="43.31" cy="16.85" r="0.38" fill="#f6bd00"/><circle cx="44.47" cy="15.82" r="0.38" fill="#f6bd00"/><circle cx="45.64" cy="14.8" r="0.38" fill="#f6bd00"/><circle cx="46.8" cy="13.77" r="0.38" fill="#f6bd00"/><circle cx="47.97" cy="12.74" r="0.38" fill="#f6bd00"/><circle cx="49.13" cy="11.71" r="0.38" fill="#f6bd00"/><circle cx="50.27" cy="10.66" r="0.38" fill="#f6bd00"/><circle cx="51.44" cy="9.63" r="0.38" fill="#f6bd00"/><circle cx="52.6" cy="8.6" r="0.38" fill="#f6bd00"/><circle cx="53.76" cy="7.58" r="0.38" fill="#f6bd00"/><circle cx="34.24" cy="23.02" r="0.38" fill="#f6bd00"/><circle cx="35.4" cy="21.99" r="0.38" fill="#f6bd00"/><circle cx="36.57" cy="20.96" r="0.38" fill="#f6bd00"/><circle cx="37.73" cy="19.94" r="0.38" fill="#f6bd00"/><circle cx="38.9" cy="18.91" r="0.38" fill="#f6bd00"/><circle cx="40.03" cy="17.85" r="0.38" fill="#f6bd00"/><circle cx="41.2" cy="16.83" r="0.38" fill="#f6bd00"/><circle cx="42.36" cy="15.8" r="0.38" fill="#f6bd00"/><circle cx="43.53" cy="14.77" r="0.38" fill="#f6bd00"/><circle cx="44.69" cy="13.74" r="0.38" fill="#f6bd00"/><circle cx="45.86" cy="12.72" r="0.38" fill="#f6bd00"/><circle cx="47.02" cy="11.69" r="0.38" fill="#f6bd00"/><circle cx="48.19" cy="10.66" r="0.38" fill="#f6bd00"/><circle cx="49.33" cy="9.61" r="0.38" fill="#f6bd00"/><circle cx="50.49" cy="8.58" r="0.38" fill="#f6bd00"/><circle cx="51.66" cy="7.55" r="0.38" fill="#f6bd00"/><circle cx="52.82" cy="6.52" r="0.38" fill="#f6bd00"/><circle cx="33.32" cy="21.98" r="0.38" fill="#f6bd00"/><circle cx="34.48" cy="20.95" r="0.38" fill="#f6bd00"/><circle cx="35.65" cy="19.92" r="0.38" fill="#f6bd00"/><circle cx="36.81" cy="18.89" r="0.38" fill="#f6bd00"/><circle cx="37.98" cy="17.87" r="0.38" fill="#f6bd00"/><circle cx="39.12" cy="16.81" r="0.38" fill="#f6bd00"/><circle cx="40.28" cy="15.78" r="0.38" fill="#f6bd00"/><circle cx="41.44" cy="14.76" r="0.38" fill="#f6bd00"/><circle cx="42.61" cy="13.73" r="0.38" fill="#f6bd00"/><circle cx="43.77" cy="12.7" r="0.38" fill="#f6bd00"/><circle cx="44.94" cy="11.67" r="0.38" fill="#f6bd00"/><circle cx="46.1" cy="10.65" r="0.38" fill="#f6bd00"/><circle cx="47.27" cy="9.62" r="0.38" fill="#f6bd00"/><circle cx="48.41" cy="8.56" r="0.38" fill="#f6bd00"/><circle cx="49.57" cy="7.54" r="0.38" fill="#f6bd00"/><circle cx="50.74" cy="6.51" r="0.38" fill="#f6bd00"/><circle cx="51.9" cy="5.48" r="0.38" fill="#f6bd00"/><circle cx="32.45" cy="20.99" r="0.38" fill="#f6bd00"/><circle cx="33.61" cy="19.96" r="0.38" fill="#f6bd00"/><circle cx="34.78" cy="18.94" r="0.38" fill="#f6bd00"/><circle cx="35.94" cy="17.91" r="0.38" fill="#f6bd00"/><circle cx="37.11" cy="16.88" r="0.38" fill="#f6bd00"/><circle cx="38.25" cy="15.83" r="0.38" fill="#f6bd00"/><circle cx="39.41" cy="14.8" r="0.38" fill="#f6bd00"/><circle cx="40.58" cy="13.77" r="0.38" fill="#f6bd00"/><circle cx="41.74" cy="12.74" r="0.38" fill="#f6bd00"/><circle cx="42.91" cy="11.72" r="0.38" fill="#f6bd00"/><circle cx="44.07" cy="10.69" r="0.38" fill="#f6bd00"/><circle cx="45.23" cy="9.66" r="0.38" fill="#f6bd00"/><circle cx="46.4" cy="8.64" r="0.38" fill="#f6bd00"/><circle cx="47.54" cy="7.58" r="0.38" fill="#f6bd00"/><circle cx="48.7" cy="6.55" r="0.38" fill="#f6bd00"/><circle cx="49.87" cy="5.52" r="0.38" fill="#f6bd00"/><circle cx="51.03" cy="4.5" r="0.38" fill="#f6bd00"/><circle cx="31.53" cy="19.95" r="0.38" fill="#f6bd00"/><circle cx="32.7" cy="18.92" r="0.38" fill="#f6bd00"/><circle cx="33.86" cy="17.9" r="0.38" fill="#f6bd00"/><circle cx="35.02" cy="16.87" r="0.38" fill="#f6bd00"/><circle cx="36.19" cy="15.84" r="0.38" fill="#f6bd00"/><circle cx="37.33" cy="14.79" r="0.38" fill="#f6bd00"/><circle cx="38.49" cy="13.76" r="0.38" fill="#f6bd00"/><circle cx="39.66" cy="12.73" r="0.38" fill="#f6bd00"/><circle cx="40.82" cy="11.7" r="0.38" fill="#f6bd00"/><circle cx="41.99" cy="10.68" r="0.38" fill="#f6bd00"/><circle cx="43.15" cy="9.65" r="0.38" fill="#f6bd00"/><circle cx="44.32" cy="8.62" r="0.38" fill="#f6bd00"/><circle cx="45.48" cy="7.59" r="0.38" fill="#f6bd00"/><circle cx="46.62" cy="6.54" r="0.38" fill="#f6bd00"/><circle cx="47.78" cy="5.51" r="0.38" fill="#f6bd00"/><circle cx="48.95" cy="4.48" r="0.38" fill="#f6bd00"/><circle cx="50.11" cy="3.46" r="0.38" fill="#f6bd00"/><circle cx="76.21" cy="30.64" r="0.38" fill="#f6bd00"/><circle cx="77.37" cy="29.61" r="0.38" fill="#f6bd00"/><circle cx="78.54" cy="28.58" r="0.38" fill="#f6bd00"/><circle cx="75.29" cy="29.59" r="0.38" fill="#f6bd00"/><circle cx="76.46" cy="28.57" r="0.38" fill="#f6bd00"/><circle cx="77.62" cy="27.54" r="0.38" fill="#f6bd00"/><circle cx="74.35" cy="28.54" r="0.38" fill="#f6bd00"/><circle cx="75.51" cy="27.52" r="0.38" fill="#f6bd00"/><circle cx="76.68" cy="26.49" r="0.38" fill="#f6bd00"/><circle cx="73.43" cy="27.5" r="0.38" fill="#f6bd00"/><circle cx="74.59" cy="26.47" r="0.38" fill="#f6bd00"/><circle cx="75.76" cy="25.45" r="0.38" fill="#f6bd00"/><circle cx="72.48" cy="26.41" r="0.38" fill="#f6bd00"/><circle cx="73.65" cy="25.39" r="0.38" fill="#f6bd00"/><circle cx="74.81" cy="24.36" r="0.38" fill="#f6bd00"/><circle cx="71.57" cy="25.37" r="0.38" fill="#f6bd00"/><circle cx="72.73" cy="24.34" r="0.38" fill="#f6bd00"/><circle cx="73.9" cy="23.32" r="0.38" fill="#f6bd00"/><circle cx="70.62" cy="24.32" r="0.38" fill="#f6bd00"/><circle cx="71.79" cy="23.29" r="0.38" fill="#f6bd00"/><circle cx="72.95" cy="22.27" r="0.38" fill="#f6bd00"/><circle cx="69.7" cy="23.28" r="0.38" fill="#f6bd00"/><circle cx="70.87" cy="22.25" r="0.38" fill="#f6bd00"/><circle cx="72.03" cy="21.22" r="0.38" fill="#f6bd00"/><circle cx="68.73" cy="22.18" r="0.38" fill="#f6bd00"/><circle cx="69.9" cy="21.15" r="0.38" fill="#f6bd00"/><circle cx="71.06" cy="20.13" r="0.38" fill="#f6bd00"/><circle cx="67.81" cy="21.14" r="0.38" fill="#f6bd00"/><circle cx="68.98" cy="20.11" r="0.38" fill="#f6bd00"/><circle cx="70.14" cy="19.08" r="0.38" fill="#f6bd00"/><circle cx="66.87" cy="20.09" r="0.38" fill="#f6bd00"/><circle cx="68.03" cy="19.06" r="0.38" fill="#f6bd00"/><circle cx="69.2" cy="18.03" r="0.38" fill="#f6bd00"/><circle cx="65.95" cy="19.05" r="0.38" fill="#f6bd00"/><circle cx="67.12" cy="18.02" r="0.38" fill="#f6bd00"/><circle cx="68.28" cy="16.99" r="0.38" fill="#f6bd00"/><circle cx="65.08" cy="18.06" r="0.38" fill="#f6bd00"/><circle cx="66.25" cy="17.03" r="0.38" fill="#f6bd00"/><circle cx="67.41" cy="16.01" r="0.38" fill="#f6bd00"/><circle cx="64.16" cy="17.02" r="0.38" fill="#f6bd00"/><circle cx="65.33" cy="15.99" r="0.38" fill="#f6bd00"/><circle cx="66.49" cy="14.96" r="0.38" fill="#f6bd00"/><circle cx="63.31" cy="16.05" r="0.38" fill="#f6bd00"/><circle cx="64.47" cy="15.02" r="0.38" fill="#f6bd00"/><circle cx="65.64" cy="14" r="0.38" fill="#f6bd00"/><circle cx="62.39" cy="15.01" r="0.38" fill="#f6bd00"/><circle cx="63.55" cy="13.98" r="0.38" fill="#f6bd00"/><circle cx="64.72" cy="12.95" r="0.38" fill="#f6bd00"/><circle cx="61.44" cy="13.96" r="0.38" fill="#f6bd00"/><circle cx="62.61" cy="12.93" r="0.38" fill="#f6bd00"/><circle cx="63.77" cy="11.9" r="0.38" fill="#f6bd00"/><circle cx="60.53" cy="12.92" r="0.38" fill="#f6bd00"/><circle cx="61.69" cy="11.89" r="0.38" fill="#f6bd00"/><circle cx="62.86" cy="10.86" r="0.38" fill="#f6bd00"/><circle cx="59.58" cy="11.83" r="0.38" fill="#f6bd00"/><circle cx="60.75" cy="10.8" r="0.38" fill="#f6bd00"/><circle cx="61.91" cy="9.77" r="0.38" fill="#f6bd00"/><circle cx="58.66" cy="10.79" r="0.38" fill="#f6bd00"/><circle cx="59.83" cy="9.76" r="0.38" fill="#f6bd00"/><circle cx="60.99" cy="8.73" r="0.38" fill="#f6bd00"/><circle cx="57.72" cy="9.73" r="0.38" fill="#f6bd00"/><circle cx="58.88" cy="8.71" r="0.38" fill="#f6bd00"/><circle cx="60.05" cy="7.68" r="0.38" fill="#f6bd00"/><circle cx="56.8" cy="8.69" r="0.38" fill="#f6bd00"/><circle cx="57.97" cy="7.67" r="0.38" fill="#f6bd00"/><circle cx="59.13" cy="6.64" r="0.38" fill="#f6bd00"/><circle cx="55.83" cy="7.59" r="0.38" fill="#f6bd00"/><circle cx="57" cy="6.57" r="0.38" fill="#f6bd00"/><circle cx="58.16" cy="5.54" r="0.38" fill="#f6bd00"/><circle cx="54.91" cy="6.55" r="0.38" fill="#f6bd00"/><circle cx="56.08" cy="5.53" r="0.38" fill="#f6bd00"/><circle cx="57.24" cy="4.5" r="0.38" fill="#f6bd00"/><circle cx="53.97" cy="5.5" r="0.38" fill="#f6bd00"/><circle cx="55.13" cy="4.47" r="0.38" fill="#f6bd00"/><circle cx="56.3" cy="3.45" r="0.38" fill="#f6bd00"/><circle cx="53.05" cy="4.46" r="0.38" fill="#f6bd00"/><circle cx="54.21" cy="3.43" r="0.38" fill="#f6bd00"/><circle cx="55.38" cy="2.4" r="0.38" fill="#f6bd00"/><circle cx="52.18" cy="3.48" r="0.38" fill="#f6bd00"/><circle cx="53.35" cy="2.45" r="0.38" fill="#f6bd00"/><circle cx="54.51" cy="1.42" r="0.38" fill="#f6bd00"/><circle cx="51.26" cy="2.43" r="0.38" fill="#f6bd00"/><circle cx="52.43" cy="1.41" r="0.38" fill="#f6bd00"/><circle cx="53.59" cy="0.38" r="0.38" fill="#f6bd00"/></g><circle cx="64.43" cy="71.86" r="3.35" fill="#ffe3a8"/><path d="M63.49,95.38V73.93h1.65V95.46Z" transform="translate(0 5.03)" fill="#ffe3a8"/><path d="M64.43,59.17a7.69,7.69,0,1,0,7.68,7.68A7.68,7.68,0,0,0,64.43,59.17Zm2.83,9.47a3.36,3.36,0,1,1-1-4.63A3.36,3.36,0,0,1,67.26,68.64Z" transform="translate(0 5.03)" fill="#ffe3a8"/><path d="M70.67,67a.64.64,0,0,0,.88-.19.63.63,0,0,0-1.07-.68.69.69,0,0,0-.09.31l-.85,0a5.51,5.51,0,0,0-.31-1.32l.78-.3a.94.94,0,0,0,.1.1.63.63,0,0,0,.87-.19.64.64,0,0,0-.19-.88.63.63,0,0,0-.94.72l-.73.28a4.52,4.52,0,0,0-.69-1.1l.64-.62a.62.62,0,0,0,.78-.23.63.63,0,0,0-1.07-.68.61.61,0,0,0,0,.73l-.59.57a5.25,5.25,0,0,0-1-.87l.52-.85a.64.64,0,0,0,.65-.28.63.63,0,1,0-.92.15l-.51.83A5.22,5.22,0,0,0,65.86,62l.15-.89a.6.6,0,0,0,.49-.28.63.63,0,1,0-.87.19l.09,0-.14.86a5.3,5.3,0,0,0-1.19-.14l-.13-1a.54.54,0,0,0,.3-.24.63.63,0,1,0-.87.2.71.71,0,0,0,.28.09l.13.92a5.5,5.5,0,0,0-1.34.27l-.4-.77a.93.93,0,0,0,.14-.14.63.63,0,0,0-.19-.87.63.63,0,1,0-.21,1.14l.38.74a4.9,4.9,0,0,0-1.3.77l-.53-.61s0,0,0,0a.63.63,0,1,0-.87.19.63.63,0,0,0,.62,0l.54.62a5.26,5.26,0,0,0-.85,1l-.74-.47a.62.62,0,1,0-.91.29.62.62,0,0,0,.74,0l.76.48a4.8,4.8,0,0,0-.49,1.15l-.87-.25a.62.62,0,0,0-.28-.56.63.63,0,1,0-.68,1.06.62.62,0,0,0,.87-.19,0,0,0,0,0,0,0l.87.26a5.64,5.64,0,0,0-.14,1.47l-.92,0a.59.59,0,0,0-.27-.4.63.63,0,0,0-.68,1.06.63.63,0,0,0,.87-.19,1.34,1.34,0,0,0,.07-.18l1,0a5.17,5.17,0,0,0,.31,1.29l-1,.3a.69.69,0,0,0-.2-.22.63.63,0,1,0,.19.87.6.6,0,0,0,.09-.37l1-.3a6.27,6.27,0,0,0,.61,1l-.79.54a.16.16,0,0,0-.07-.07.62.62,0,0,0-.87.19.63.63,0,0,0,1.06.68.62.62,0,0,0,.05-.56l.82-.56a5.21,5.21,0,0,0,1,.94L61.1,72a.62.62,0,0,0-.74.25.63.63,0,1,0,1.06.67.62.62,0,0,0-.07-.75l.46-.7a5,5,0,0,0,1.45.56l-.27.76a.63.63,0,0,0-.4,1.16.64.64,0,0,0,.88-.2.63.63,0,0,0-.2-.87l.27-.77a4.9,4.9,0,0,0,1.08.06l.06.9a.6.6,0,0,0-.34.25.63.63,0,1,0,.87-.19A.5.5,0,0,0,65,73l-.07-.9a5.31,5.31,0,0,0,1.31-.3l.34.76a.49.49,0,0,0-.16.16.63.63,0,1,0,.87-.19.62.62,0,0,0-.44-.09l-.33-.74a4.87,4.87,0,0,0,1.23-.79l.53.64,0,0a.65.65,0,1,0,.26-.22L68,70.71a5,5,0,0,0,.73-.86l.66.38a.59.59,0,0,0,.25.71.62.62,0,0,0,.87-.19.63.63,0,0,0-.19-.87.62.62,0,0,0-.78.1l-.65-.38a5.18,5.18,0,0,0,.53-1.27l.79.21a.62.62,0,0,0,.26.36.63.63,0,1,0,.68-1.06.62.62,0,0,0-.87.19.39.39,0,0,0-.08.2l-.7-.18a5,5,0,0,0,.11-1.33l.88,0A.59.59,0,0,0,70.67,67Zm-8,2.71a3.35,3.35,0,1,1,4.63-1A3.36,3.36,0,0,1,62.63,69.67Z" transform="translate(0 5.03)" fill="#f6bd00"/><path d="M80.77,72s-17.24,5.65-17,23.44A31.15,31.15,0,0,0,80.77,72Z" transform="translate(0 5.03)" fill="url(#New_Gradient_Swatch_2-13)"/><g clip-path="url(#clip-path-2)"><polygon points="63.45 101.2 58.85 97.38 77.13 71.61 81.73 75.44 63.45 101.2" fill="#ffe3a8"/></g><rect x="32.38" y="71.58" width="1.49" height="28.73" fill="#ffe3a8"/><path d="M32.05,60.64c-3.49-3.18-4-5.87-4-5.87s-3.33,11.68,5.6,12.69A5.73,5.73,0,0,0,32.05,60.64Zm-1.64,4.57a6.59,6.59,0,0,1-1.5-2.09,8.61,8.61,0,0,1-.69-2.46,7.06,7.06,0,0,1,.11-2.51,20.19,20.19,0,0,0,1.36,4.61,9.89,9.89,0,0,0,1.21,2,12.52,12.52,0,0,0,1.72,1.69A5.44,5.44,0,0,1,30.41,65.21Z" transform="translate(0 5.03)" fill="#ffe3a8"/><path d="M36.33,54.66a12.9,12.9,0,0,1-4.65,5A9.35,9.35,0,0,1,34.38,63c.14-.19.27-.4.39-.6a11.2,11.2,0,0,0,.71-1.43,19.18,19.18,0,0,0,1-3.09,19.9,19.9,0,0,1-.58,3.23,12.8,12.8,0,0,1-.54,1.58,6.73,6.73,0,0,1-.67,1.23,3.63,3.63,0,0,1-.31,2.69C39.55,64.23,36.33,54.66,36.33,54.66Z" transform="translate(0 5.03)" fill="url(#New_Gradient_Swatch_2-14)"/><path d="M32.68,48.32a16.15,16.15,0,0,0-1.79,3.36,9,9,0,0,0,2.25,2.71c0-.18,0-.36,0-.55,0-.42.05-.85.05-1.27A15.62,15.62,0,0,0,33.06,50a16.25,16.25,0,0,1,.61,2.52c.07.43.12.86.16,1.29s.06.83.08,1.2c.59.47,1,.76,1,.76.4-.23.81-1.22.81-1.22A17.05,17.05,0,0,0,32.68,48.32Z" transform="translate(0 5.03)" fill="#ffe3a8"/><path d="M30,50.7A17.46,17.46,0,0,0,28.67,55a19.44,19.44,0,0,0,1.16,2.21c0-.41-.09-.82-.11-1.24a14.34,14.34,0,0,1,.19-3.14,13.87,13.87,0,0,0,.24,3.09,16.15,16.15,0,0,0,.74,2.71,2.85,2.85,0,0,0,.58.49,10.89,10.89,0,0,0,3.17-2.75S30.73,54,30,50.7Z" transform="translate(0 5.03)" fill="url(#New_Gradient_Swatch_2-15)"/><path d="M84.38,95.32V33.5H83V95.28C83.44,95.28,83.91,95.3,84.38,95.32Z" transform="translate(0 5.03)" fill="#ffe3a8"/><polygon points="83.65 66.95 76.19 63.5 75.61 61.85 84.18 65.82 83.65 66.95" fill="#ffe3a8"/><path d="M72.2,58.68h0a2.71,2.71,0,1,1,2.43-4.85h0l.16.08-.74,1.46c-.23.5-.48,1-.74,1.47l-1,1.93Z" transform="translate(0 5.03)" fill="url(#New_Gradient_Swatch_2-16)"/><ellipse cx="77.58" cy="54" rx="1.12" ry="0.89" transform="translate(-7.58 18.01) rotate(-9.12)" fill="url(#New_Gradient_Swatch_2-17)"/><ellipse cx="77.66" cy="56.27" rx="0.89" ry="1.12" transform="translate(2.54 120.91) rotate(-74.36)" fill="url(#New_Gradient_Swatch_2-18)"/><ellipse cx="74.08" cy="61" rx="0.89" ry="1.12" transform="translate(-19.82 46.27) rotate(-27.59)" fill="url(#New_Gradient_Swatch_2-19)"/><ellipse cx="75.93" cy="59.69" rx="0.89" ry="1.12" transform="translate(-17.71 88.38) rotate(-52.35)" fill="url(#New_Gradient_Swatch_2-20)"/><ellipse cx="77.11" cy="58.16" rx="0.89" ry="1.12" transform="translate(-9.46 106.02) rotate(-63.35)" fill="url(#New_Gradient_Swatch_2-21)"/><path d="M72.36,61.42l.09-2.5.4-.79,1.84,2L73,57.9l.46-.9,2.36,1.54-2.25-1.75.18-.34h0l.3-.62,2.69,1L74.13,55.6l.41-.82,2.61.21-2.5-.44L75,53.9l1.94-1.57s1.72.28.51,1.79l0,0a1.64,1.64,0,0,1,.89.49A.83.83,0,0,1,78,56a1.56,1.56,0,0,1-.8.11,1.46,1.46,0,0,1,.7.61c.28.53-.06,1.06-.77,1.17a1.77,1.77,0,0,1-.46,0,2.4,2.4,0,0,1,.27.38c.33.63.12,1.22-.47,1.31a1.39,1.39,0,0,1-.91-.2,1.61,1.61,0,0,1,.39.71.84.84,0,0,1-.93,1.07,1.59,1.59,0,0,1-.92-.42h0C73.61,62.63,72.36,61.42,72.36,61.42Z" transform="translate(0 5.03)" fill="#ffe3a8"/><path d="M33.92,46.39h0c16.92,14.71,17.6.06,17.6.06h0C51.49,46,50.69,32.07,33.92,46.39Z" transform="translate(0 5.03)" fill="url(#New_Gradient_Swatch_2-22)"/><path d="M34.2,46.36a25.51,25.51,0,0,1,4.37,0c1.54,0,3.08,0,4.62,0l4.72,0c1.21,0,2.42.07,3.63.05h0c0-.45-.83-14.4-17.59-.09h.13Z" transform="translate(0 5.03)" fill="#ffe3a8"/><path d="M46,46.55l.09-.13h-.39l-2.1,2.76-2.85,2.19.11.06.13.09.05,0,2.36-1.82-.74,2.51,0,0h.05l0,0,.06,0,.12,0h0l.89-3Z" transform="translate(0 5.03)" fill="#f6bd00"/><path d="M49.85,46.48h-.38l-2.14,3.26-2.6,3.07-.06.06.08,0h0l.23,0h0l2.13-2.51.08,2.4v.06l.09,0h0l.08,0,.08,0h0l-.1-2.69,2.31-3.51Z" transform="translate(0 5.03)" fill="#f6bd00"/><path d="M42.17,46.55l.17-.15h-.47l-1.75,1.68L37.75,49.5l.09.07.06,0,.1.07h0l1.81-1.09-.5,1.91v0l0,0,.12.06.08,0,.06,0,.6-2.3Z" transform="translate(0 5.03)" fill="#f6bd00"/><polygon points="38.32 51.37 35.97 53.15 36.17 53.4 38.84 51.38 38.72 51.38 38.32 51.37" fill="#f6bd00"/><polygon points="55.08 51.61 44.22 51.29 44.23 50.75 55.08 51.07 55.08 51.61" fill="#ffe3a8"/><path d="M30.5,15.33a12.47,12.47,0,0,0-9.63-2.18l-.84.49a6.75,6.75,0,0,0-1.13,4.58c.38,2.54,3.26,1.79,3.26,1.79h0c.07-.17.68-1.79-.76-4.28C27.31,21.45,30.5,15.33,30.5,15.33Z" transform="translate(0 5.03)" fill="#ffe3a8"/><path d="M12.86,2s-5,4.69,2,8.86c-2.93-.75-4.32.43-4.32.43s0,3,2.6,2.66a6.73,6.73,0,0,0,4.11-2.31l.25-.94A12.47,12.47,0,0,0,12.86,2Z" transform="translate(0 5.03)" fill="#ffe3a8"/><path d="M29.06,17.17a37.7,37.7,0,0,0-4.24-2,38,38,0,0,0-4.45-1.47,35.41,35.41,0,0,0,4.25,1.95A37.84,37.84,0,0,0,29.06,17.17Z" transform="translate(0 5.03)" fill="#f6bd00"/><path d="M25.62,18.18a5.34,5.34,0,0,0-.26-.8c-.11-.25-.21-.51-.33-.76-.22-.51-.48-1-.74-1.49l-.11.36q.84-.39,1.65-.84a17.42,17.42,0,0,0,1.59-1,13.06,13.06,0,0,0-1.76.61c-.58.23-1.14.48-1.7.75l-.25.12.14.24c.27.48.54.95.84,1.42S25.3,17.73,25.62,18.18Z" transform="translate(0 5.03)" fill="#f6bd00"/><path d="M11.47,3.83a36.44,36.44,0,0,1,3,3.57,36.58,36.58,0,0,1,2.6,3.89,36.44,36.44,0,0,1-3-3.57A36.58,36.58,0,0,1,11.47,3.83Z" transform="translate(0 5.03)" fill="#f6bd00"/><path d="M11.41,7.41a5.75,5.75,0,0,1,.84,0c.28,0,.56.06.83.11.55.08,1.09.19,1.63.31l-.32.21c.11-.61.23-1.21.37-1.82a16.56,16.56,0,0,1,.52-1.79,14.4,14.4,0,0,1-.11,1.86q-.11.92-.27,1.83l-.05.27-.27-.06C14.05,8.25,13.51,8.11,13,8S11.94,7.6,11.41,7.41Z" transform="translate(0 5.03)" fill="#f6bd00"/><ellipse cx="18.76" cy="12.63" rx="2.82" ry="2.74" transform="translate(-2.65 24.94) rotate(-52.74)" fill="#ffe3a8"/><ellipse cx="20.58" cy="10.25" rx="1.31" ry="1.99" transform="translate(-0.04 25.45) rotate(-52.74)" fill="#ffe3a8"/><path d="M19.37,15.29l-1.69-1.22h0l-1.6-1.28S13.17,14,12.15,16s.43,4.78.43,4.78v0c.27.05,3.07.58,4.7-.87S19.37,15.29,19.37,15.29Z" transform="translate(0 5.03)" fill="#ffe3a8"/><g clip-path="url(#clip-path-3)"><rect x="13.3" y="15.05" width="6.57" height="1.17" transform="translate(12.85 -1.82) rotate(37.26)" fill="url(#New_Gradient_Swatch_2-23)"/><rect x="11.41" y="16.81" width="7.55" height="1.17" transform="translate(13.63 -0.62) rotate(37.26)" fill="url(#New_Gradient_Swatch_2-24)"/><rect x="10.55" y="18.61" width="6.57" height="1.17" transform="translate(14.44 0.57) rotate(37.26)" fill="url(#New_Gradient_Swatch_2-25)"/></g><path d="M19.6,6.15h0c-.05,0,0,0,0,0l.13.09a2.64,2.64,0,0,1,.41.34A2.46,2.46,0,0,1,20.84,8a2.89,2.89,0,0,1-.13,1.27c-.07.22.25.34.32.13A3,3,0,0,0,21,7.12,3,3,0,0,0,20,6a2.61,2.61,0,0,0-.28-.17c-.19-.1-.33.23-.13.33Z" transform="translate(0 5.03)" fill="#ffe3a8"/><path d="M24.68,10h0l-.12-.1a2.14,2.14,0,0,0-.44-.3,2.47,2.47,0,0,0-1.51-.31,2.92,2.92,0,0,0-1.19.47c-.19.12-.4-.15-.21-.27a2.85,2.85,0,0,1,3.52.08l.24.22c.15.16-.13.38-.28.22Z" transform="translate(0 5.03)" fill="#ffe3a8"/><path d="M22.54,68.29s2.29,1.84,2.67,6.47,0,14.52.37,16.21,3,4,6.67,4.09c0,0-1.73-.56-1.84-4s-.16-14.37-.16-14.37A8.08,8.08,0,0,0,22.54,68.29Z" transform="translate(0 5.03)" fill="#ffe3a8"/><path d="M29.4,94.55l.59.18.17.06h.05l.1,0,.17,0h0c-2.18-.86-2.07-4.33-2.07-4.37l-.24-16.91a6.78,6.78,0,0,0-1.07-3.66h0l-.15-.11a3.37,3.37,0,0,0-.32-.19l-.56-.3h0s1.59,1.21,1.68,4.27L28,90.47C28,90.6,27.9,93.22,29.4,94.55Z" transform="translate(0 5.03)" fill="#f6bd00"/><path d="M43.13,68.29s-2.29,1.84-2.67,6.47,0,14.52-.38,16.21-2.94,4-6.66,4.09c0,0,1.72-.56,1.84-4s.16-14.37.16-14.37A8.08,8.08,0,0,1,43.13,68.29Z" transform="translate(0 5.03)" fill="#ffe3a8"/><path d="M36.27,94.55l-.59.18-.18.06h0l-.1,0-.17,0h0c2.18-.86,2.07-4.33,2.07-4.37l.24-16.91a6.69,6.69,0,0,1,1.07-3.66h0l.15-.11a3.37,3.37,0,0,1,.32-.19l.56-.3h0S38,70.5,37.93,73.56l-.25,16.91C37.69,90.6,37.77,93.22,36.27,94.55Z" transform="translate(0 5.03)" fill="#f6bd00"/><ellipse cx="79.4" cy="19.14" rx="2.25" ry="5.01" transform="translate(22.84 83.08) rotate(-59.72)" fill="#ffe3a8"/><path d="M84,30.73V15h-.89v15.8Z" transform="translate(0 5.03)" fill="#ffe3a8"/><path d="M84.12,11.71a2.92,2.92,0,1,1,2.13-3.54A2.91,2.91,0,0,1,84.12,11.71Z" transform="translate(0 5.03)" fill="#f6bd00"/><path d="M87.11,7.94a3.82,3.82,0,1,0-2.78,4.63A3.82,3.82,0,0,0,87.11,7.94Zm-3,3.75a2.92,2.92,0,1,1,2.12-3.53A2.92,2.92,0,0,1,84.11,11.69Z" transform="translate(0 5.03)" fill="url(#New_Gradient_Swatch_2-26)"/><path d="M84.48,14.22a1.06,1.06,0,0,0-2.12,0,1.07,1.07,0,1,0,2.12,0Z" transform="translate(0 5.03)" fill="#ffe3a8"/><path d="M87.16,12.77a1.21,1.21,0,0,0-1.43-.25,1.23,1.23,0,0,0-.34,1.42,1.07,1.07,0,1,0,1.77-1.17Z" transform="translate(0 5.03)" fill="#ffe3a8"/><path d="M88.64,10.09a1.22,1.22,0,0,0-1.34.57A1.21,1.21,0,0,0,87.78,12a1,1,0,0,0,1.53-.48A1,1,0,0,0,88.64,10.09Z" transform="translate(0 5.03)" fill="#ffe3a8"/><path d="M88.44,7.05a1.19,1.19,0,0,0-.82,1.2,1.2,1.2,0,0,0,1.15.89,1,1,0,0,0,1-1.23A1,1,0,0,0,88.44,7.05Z" transform="translate(0 5.03)" fill="#ffe3a8"/><path d="M86.62,4.59a1.22,1.22,0,0,0,0,1.46A1.22,1.22,0,0,0,88,6.18a1,1,0,0,0,.2-1.6A1,1,0,0,0,86.62,4.59Z" transform="translate(0 5.03)" fill="#ffe3a8"/><path d="M83.76,3.51a1.21,1.21,0,0,0,.75,1.25,1.2,1.2,0,0,0,1.29-.68,1.07,1.07,0,1,0-2-.57Z" transform="translate(0 5.03)" fill="#ffe3a8"/><path d="M80.77,4.15a1.21,1.21,0,0,0,1.31.64,1.22,1.22,0,0,0,.72-1.26,1,1,0,0,0-1.37-.84A1,1,0,0,0,80.77,4.15Z" transform="translate(0 5.03)" fill="#ffe3a8"/><path d="M78.6,6.3a1.23,1.23,0,0,0,1.45-.17A1.22,1.22,0,0,0,80,4.68a1,1,0,0,0-1.6,0A1,1,0,0,0,78.6,6.3Z" transform="translate(0 5.03)" fill="#ffe3a8"/><path d="M77.94,9.28a1.23,1.23,0,0,0,1.13-.92,1.21,1.21,0,0,0-.85-1.18,1,1,0,0,0-1.34.89A1,1,0,0,0,77.94,9.28Z" transform="translate(0 5.03)" fill="#ffe3a8"/><path d="M79,12.15a1.21,1.21,0,0,0,.45-1.39,1.19,1.19,0,0,0-1.35-.53,1,1,0,0,0-.64,1.47A1,1,0,0,0,79,12.15Z" transform="translate(0 5.03)" fill="#ffe3a8"/><path d="M81.43,14a1.21,1.21,0,0,0-.37-1.41,1.21,1.21,0,0,0-1.43.29A1.07,1.07,0,1,0,81.43,14Z" transform="translate(0 5.03)" fill="#ffe3a8"/><path d="M85.33,8.38a2,2,0,1,0-1.45,2.41A2,2,0,0,0,85.33,8.38ZM83.68,10a1.14,1.14,0,0,1-.56-2.22A1.14,1.14,0,1,1,83.68,10Z" transform="translate(0 5.03)" fill="#ffe3a8"/><ellipse cx="87.62" cy="19.03" rx="5.01" ry="2.25" transform="translate(2.36 51.8) rotate(-30.28)" fill="#ffe3a8"/><path d="M95,36.23c.11-1.22-1.08-2.33-2.64-2.47a3.9,3.9,0,0,0-.59,0v0l.22-.08c1.43-.68,2.2-2.14,1.72-3.26s-2-1.48-3.47-.8a3.92,3.92,0,0,0-.68.43h0a4.23,4.23,0,0,0,.41-.76c.62-1.51.24-3.12-.85-3.6s-2.45.37-3.06,1.88a2.24,2.24,0,0,0-.11.34,3.68,3.68,0,0,0,0-.58c0-1.63-.9-3-2.07-3s-2.14,1.29-2.17,2.92a4.94,4.94,0,0,0,0,.68h0a5,5,0,0,0-.12-.49c-.52-1.54-1.84-2.45-2.95-2.05s-1.58,2-1.06,3.53a4.43,4.43,0,0,0,.34.73,3.22,3.22,0,0,0-.6-.42c-1.39-.76-3-.5-3.51.58s.13,2.58,1.52,3.34l.38.17a3.5,3.5,0,0,0-.8-.08c-1.57.05-2.82,1.08-2.79,2.3s1.33,2.17,2.9,2.13a4.12,4.12,0,0,0,.52-.06,3.81,3.81,0,0,0-1,.71c-1.13,1.15-1.38,2.78-.56,3.64s2.32.65,3.44-.43c-.07.12-.15.24-.22.37-.74,1.47-.5,3.14.54,3.72S80.28,45.47,81,44c.08-.17.15-.35.21-.52l.06,0a5.09,5.09,0,0,0-.05.69c0,1.67,1,3,2.19,3s2.1-1.41,2.07-3.07c0-.14,0-.26,0-.39l.07,0a4.05,4.05,0,0,0,.68,1c1.09,1.2,2.66,1.46,3.5.6s.64-2.41-.34-3.59h0v0c1.06,1.22,2.62,1.54,3.48.71s.72-2.47-.33-3.68a4.51,4.51,0,0,0-.66-.59l.1,0C93.55,38.33,94.9,37.45,95,36.23Z" transform="translate(0 5.03)" fill="#ffe3a8" fill-rule="evenodd"/><path d="M80,35.91s.08,0,.09-.09a.1.1,0,0,0-.08-.1l-.8-.17-4.78-.26-.22,0-.58,0a.11.11,0,0,0-.09.09.11.11,0,0,0,.08.11l.58.12.22,0,4.78.26Z" transform="translate(0 5.03)" fill="url(#New_Gradient_Swatch_2-27)"/><path d="M75.81,30.81l.13.13,2.94,2.16.55.27h0a.09.09,0,0,0,.08,0,.11.11,0,0,0,0-.13l-.43-.46-2.94-2.17L76,30.51l-.41-.2a.11.11,0,0,0-.12,0,.09.09,0,0,0,0,.12C75.6,30.59,75.71,30.7,75.81,30.81Z" transform="translate(0 5.03)" fill="url(#New_Gradient_Swatch_2-28)"/><path d="M79.27,27.46l1.35,3.86.33.6A.11.11,0,0,0,81,32h0a.1.1,0,0,0,.07-.11l-.12-.7-1.35-3.85-.08-.16-.25-.45a.1.1,0,0,0-.12,0,.09.09,0,0,0-.07.1c0,.17,0,.34.08.5Z" transform="translate(0 5.03)" fill="url(#New_Gradient_Swatch_2-29)"/><path d="M80.07,37.53a.1.1,0,0,0,0-.13.11.11,0,0,0-.12,0l-.67.3L75.71,40l-.14.12-.39.36a.11.11,0,0,0,0,.13.1.1,0,0,0,.09,0h0l.49-.21.19-.09L79.53,38Z" transform="translate(0 5.03)" fill="url(#New_Gradient_Swatch_2-30)"/><path d="M81.38,39.1c-.11.13-.22.28-.32.42l-.14.18-2.09,3.84-.25.69a.09.09,0,0,0,0,.12l0,0a.12.12,0,0,0,.08,0l.46-.6,2.1-3.84.07-.19.18-.51a.12.12,0,0,0,0-.12A.11.11,0,0,0,81.38,39.1Z" transform="translate(0 5.03)" fill="url(#New_Gradient_Swatch_2-31)"/><path d="M83.4,40.31a4.15,4.15,0,0,0-.11-.48.1.1,0,0,0-.09-.07h0a.09.09,0,0,0-.09.08c0,.16,0,.33-.07.49l0,.2.14,4,.13.67a.12.12,0,0,0,.1.08h0a.09.09,0,0,0,.09-.09l.1-.69-.15-4Z" transform="translate(0 5.03)" fill="url(#New_Gradient_Swatch_2-32)"/><path d="M85.86,38.94l-.14-.19c-.13-.17-.25-.34-.38-.5a.11.11,0,0,0-.13,0,.11.11,0,0,0,0,.13c.07.2.15.39.23.59l.09.22,2.5,4.5.51.69a.12.12,0,0,0,.08,0h0a.11.11,0,0,0,0-.13l-.32-.81Z" transform="translate(0 5.03)" fill="url(#New_Gradient_Swatch_2-33)"/><path d="M91.6,40.42l-4.25-2.58-.21-.09a5.72,5.72,0,0,0-.57-.24.1.1,0,0,0-.12,0,.11.11,0,0,0,0,.12l.48.4.18.14,4.26,2.59.77.33h0a.12.12,0,0,0,.09,0,.11.11,0,0,0,0-.13Z" transform="translate(0 5.03)" fill="url(#New_Gradient_Swatch_2-34)"/><path d="M93.69,36l-.75-.13-4.41-.08-.21,0-.53.08a.12.12,0,0,0-.09.09.11.11,0,0,0,.08.1l.53.1.22,0,4.42.08.73-.1a.11.11,0,0,0,.09-.1A.1.1,0,0,0,93.69,36Z" transform="translate(0 5.03)" fill="url(#New_Gradient_Swatch_2-35)"/><path d="M87.27,33.93c-.15.12-.3.24-.45.38a.11.11,0,0,0,0,.12.12.12,0,0,0,.09,0h0l.54-.23.21-.1,4.11-2.52.62-.52a.12.12,0,0,0,0-.13.11.11,0,0,0-.13,0l-.75.33-4.1,2.53Z" transform="translate(0 5.03)" fill="url(#New_Gradient_Swatch_2-36)"/><path d="M86.32,32.59a.09.09,0,0,0,.08,0c.1-.14.19-.29.28-.43l.12-.18,1.69-3.84.17-.68a.11.11,0,0,0,0-.12.11.11,0,0,0-.13,0l-.39.6L86.4,31.78l-.06.19-.12.5a.09.09,0,0,0,.06.11Z" transform="translate(0 5.03)" fill="url(#New_Gradient_Swatch_2-37)"/><path d="M84,25.91a.09.09,0,0,0-.11-.07.09.09,0,0,0-.09.09l-.07.74L84,31l0,.19c0,.18.07.35.12.52a.09.09,0,0,0,.09.08h0s.09,0,.09-.09,0-.35.06-.53l0-.21-.27-4.32Z" transform="translate(0 5.03)" fill="url(#New_Gradient_Swatch_2-38)"/><circle cx="83.54" cy="40.7" r="5.22" fill="url(#New_Gradient_Swatch_2-39)"/><circle cx="83.55" cy="40.7" r="3.62" fill="#ffe3a8"/><path d="M82.27,35.71a.49.49,0,1,1,.15-1,.49.49,0,0,1,.41.56A.49.49,0,0,1,82.27,35.71Z" transform="translate(0 5.03)" fill="#f6bd00" fill-rule="evenodd"/><path d="M83.55,36.31a.5.5,0,0,1-.41-.56.49.49,0,0,1,.56-.41.5.5,0,0,1,.41.56A.51.51,0,0,1,83.55,36.31Z" transform="translate(0 5.03)" fill="#f6bd00" fill-rule="evenodd"/><path d="M82.37,37.19a.49.49,0,0,1-.41-.56.49.49,0,1,1,1,.15A.49.49,0,0,1,82.37,37.19Z" transform="translate(0 5.03)" fill="#f6bd00" fill-rule="evenodd"/><path d="M85,36.73a.49.49,0,1,1,.15-1,.49.49,0,0,1-.15,1Z" transform="translate(0 5.03)" fill="#f6bd00" fill-rule="evenodd"/><path d="M83.36,37.16a.51.51,0,0,1,.56-.41.49.49,0,1,1-.56.41Z" transform="translate(0 5.03)" fill="#f6bd00" fill-rule="evenodd"/><circle cx="83.38" cy="34.35" r="0.49" transform="translate(36.62 116.48) rotate(-81.16)" fill="#f6bd00"/><path d="M84.66,35.29a.49.49,0,0,1-.41-.56.49.49,0,0,1,1,.15A.49.49,0,0,1,84.66,35.29Z" transform="translate(0 5.03)" fill="#f6bd00" fill-rule="evenodd"/><path d="M81.88,34.11a.49.49,0,0,1-.41-.56.49.49,0,1,1,.41.56Z" transform="translate(0 5.03)" fill="#f6bd00" fill-rule="evenodd"/><path d="M86.15,35.71a.49.49,0,1,1,.56-.4A.48.48,0,0,1,86.15,35.71Z" transform="translate(0 5.03)" fill="#f6bd00" fill-rule="evenodd"/><path d="M80.91,36.57a.49.49,0,1,1,.15-1,.48.48,0,0,1,.41.56A.49.49,0,0,1,80.91,36.57Z" transform="translate(0 5.03)" fill="#f6bd00" fill-rule="evenodd"/><path d="M84.85,37.75a.49.49,0,0,1,.56-.41.49.49,0,0,1,.41.56.49.49,0,0,1-1-.15Z" transform="translate(0 5.03)" fill="#f6bd00" fill-rule="evenodd"/><circle cx="84.6" cy="33.23" r="0.49" transform="translate(38.76 116.74) rotate(-81.16)" fill="#f6bd00"/><path d="M82.48,38.75a.49.49,0,1,1,.15-1,.48.48,0,0,1,.41.56A.49.49,0,0,1,82.48,38.75Z" transform="translate(0 5.03)" fill="#f6bd00" fill-rule="evenodd"/><path d="M83.13,33.6a.48.48,0,0,1-.4-.56.49.49,0,1,1,1,.15A.48.48,0,0,1,83.13,33.6Z" transform="translate(0 5.03)" fill="#f6bd00" fill-rule="evenodd"/><path d="M81,35.16a.49.49,0,1,1,.56-.41A.49.49,0,0,1,81,35.16Z" transform="translate(0 5.03)" fill="#f6bd00" fill-rule="evenodd"/><path d="M86.19,37.16a.51.51,0,0,1-.41-.56.5.5,0,0,1,.56-.41.48.48,0,0,1,.41.56A.5.5,0,0,1,86.19,37.16Z" transform="translate(0 5.03)" fill="#f6bd00" fill-rule="evenodd"/><path d="M83.52,38.37a.49.49,0,0,1,.56-.41.49.49,0,1,1-.56.41Z" transform="translate(0 5.03)" fill="#f6bd00" fill-rule="evenodd"/><circle cx="81.44" cy="37.45" r="0.49" transform="matrix(0.15, -0.99, 0.99, 0.15, 31.92, 117.19)" fill="#f6bd00"/><path d="M85.6,34.4a.48.48,0,0,1-.4-.56.49.49,0,0,1,.56-.41.48.48,0,0,1,.4.56A.49.49,0,0,1,85.6,34.4Z" transform="translate(0 5.03)" fill="#f6bd00" fill-rule="evenodd"/><circle cx="82.82" cy="36.32" r="0.42" fill="#ffe3a8"/><circle cx="84.15" cy="36.29" r="0.42" fill="#ffe3a8"/><circle cx="85.53" cy="36.68" r="0.42" fill="#ffe3a8"/><circle cx="86.73" cy="37.45" r="0.42" fill="#ffe3a8"/><circle cx="87.48" cy="38.51" r="0.42" fill="#ffe3a8"/><circle cx="85.48" cy="44.64" r="0.42" fill="#ffe3a8"/><circle cx="86.65" cy="43.81" r="0.42" fill="#ffe3a8"/><circle cx="87.53" cy="42.69" r="0.42" fill="#ffe3a8"/><circle cx="87.88" cy="41.44" r="0.42" fill="#ffe3a8"/><circle cx="87.9" cy="39.97" r="0.42" fill="#ffe3a8"/><circle cx="81.6" cy="36.78" r="0.42" fill="#ffe3a8"/><circle cx="80.43" cy="37.6" r="0.42" fill="#ffe3a8"/><circle cx="79.55" cy="38.72" r="0.42" fill="#ffe3a8"/><circle cx="79.2" cy="39.97" r="0.42" fill="#ffe3a8"/><circle cx="79.11" cy="41.32" r="0.42" fill="#ffe3a8"/><circle cx="79.58" cy="42.55" r="0.42" fill="#ffe3a8"/><circle cx="80.41" cy="43.72" r="0.42" fill="#ffe3a8"/><circle cx="81.53" cy="44.6" r="0.42" fill="#ffe3a8"/><circle cx="82.78" cy="44.95" r="0.42" fill="#ffe3a8"/><circle cx="84.25" cy="44.97" r="0.42" fill="#ffe3a8"/><g clip-path="url(#clip-path-4)"><rect x="49.23" y="58.63" width="4.04" height="47.76" fill="#f6bd00"/><rect x="45.19" y="57.23" width="4.04" height="47.76" fill="url(#New_Gradient_Swatch_2-40)"/><rect x="43.12" y="57.67" width="4.04" height="47.76" fill="#ffe3a8"/></g><path d="M52,94.87h-.39a7.43,7.43,0,0,1-7.43-7.42V56h.4A7.43,7.43,0,0,1,52,63.38ZM45,56.75v30.7a6.64,6.64,0,0,0,6.23,6.62V63.38A6.65,6.65,0,0,0,45,56.75Z" transform="translate(0 5.03)" fill="#ffe3a8"/><path d="M20.66,94.72V48.15H19.29V94.78C19.75,94.77,20.2,94.75,20.66,94.72Z" transform="translate(0 5.03)" fill="#ffe3a8"/><path d="M29.94,43a2.88,2.88,0,0,0,1.53-.65,3.27,3.27,0,0,0,1.16-2.34,3.41,3.41,0,0,0-2.92-3.15,3.18,3.18,0,0,0,.43-4.12,3.63,3.63,0,0,0-2.38-1.29,2.84,2.84,0,0,0-1.74.34,2.75,2.75,0,0,0-.18-1.78,3.61,3.61,0,0,0-2-1.83,3.68,3.68,0,0,0-2.66.29A2.65,2.65,0,0,0,20,29.83a2.83,2.83,0,0,0-1.18-1.31,3.56,3.56,0,0,0-2.69-.39A3.15,3.15,0,0,0,14,31.69a3.4,3.4,0,0,0-4.23.78A3.29,3.29,0,0,0,9.31,35a2.77,2.77,0,0,0,.83,1.44,2.86,2.86,0,0,0-1.52.66,3.25,3.25,0,0,0-1.16,2.34,3.41,3.41,0,0,0,2.92,3.15A3.15,3.15,0,0,0,10,46.74,3.63,3.63,0,0,0,12.32,48a2.78,2.78,0,0,0,1.74-.35,2.81,2.81,0,0,0,.19,1.78,3.62,3.62,0,0,0,2,1.84A3.72,3.72,0,0,0,18.88,51a2.78,2.78,0,0,0,1.22-1.32A2.93,2.93,0,0,0,21.28,51a3.58,3.58,0,0,0,2.68.39,3.18,3.18,0,0,0,2.12-3.57,3.39,3.39,0,0,0,4.22-.77,3.3,3.3,0,0,0,.48-2.56A2.82,2.82,0,0,0,29.94,43Zm-8.49-2.33h0a7.43,7.43,0,0,1,2.17,2.65c.43.82.72,1.77,1.06,2.58-.69-.59-1.54-1.16-2.22-1.82a7.27,7.27,0,0,1-1.89-2.76A1.77,1.77,0,0,0,21.45,40.71Zm0-1.93a7.32,7.32,0,0,1,3.19-1.08c.93-.13,1.95-.08,2.85-.13-.77.45-1.57,1-2.41,1.43a7.2,7.2,0,0,1-3.3.83h0A1.71,1.71,0,0,0,21.43,38.78Zm0,1.9a2,2,0,0,0,.19-.39,1.56,1.56,0,0,0,.08-.42h0a7.53,7.53,0,0,1,3.32.94,22.81,22.81,0,0,1,2.08,1.3,18.68,18.68,0,0,1-2.46-.2,7.42,7.42,0,0,1-3.21-1.21ZM30.75,40a2,2,0,0,1-2.55,1.78,15.93,15.93,0,0,1-2.39-1.22,5.58,5.58,0,0,0-2.19-.67s-.13,0-.14,0,.14,0,.14,0a5.1,5.1,0,0,0,2.17-.59,15.25,15.25,0,0,1,2.38-1.13A2.12,2.12,0,0,1,30.75,40ZM24.28,36a13.58,13.58,0,0,1,1.22-2.29,2.12,2.12,0,0,1,3.17.08,2,2,0,0,1-1,2.91,15.69,15.69,0,0,1-2.64.37,5.2,5.2,0,0,0-2.15.69s-.11.08-.12.06.09-.09.09-.09A5,5,0,0,0,24.28,36Zm-.79.19a6.7,6.7,0,0,1-2.08,2.52,1.68,1.68,0,0,0-.81-.59,6.74,6.74,0,0,1,1.87-2.72,22.59,22.59,0,0,1,2-1.58A22.71,22.71,0,0,1,23.49,36.22ZM23.3,30a2,2,0,0,1,1,2.95,15.48,15.48,0,0,1-1.87,1.8,4.82,4.82,0,0,0-1.29,1.79s0,.12-.06.12,0-.13,0-.13a5,5,0,0,0,0-2.2,13.17,13.17,0,0,1-.42-2.57A2,2,0,0,1,23.3,30Zm-2.62,4.89a6.78,6.78,0,0,1-.12,3.29,1.74,1.74,0,0,0-1,0,7,7,0,0,1-.16-3.28A21.79,21.79,0,0,1,20,32.38,22.81,22.81,0,0,1,20.68,34.84Zm-2.06,4a1.41,1.41,0,0,0-.19.39,1.63,1.63,0,0,0-.08.43h0A7.5,7.5,0,0,1,15,38.7a18.21,18.21,0,0,1-2.08-1.3,23.07,23.07,0,0,1,2.46.2,7.47,7.47,0,0,1,3.21,1.22Zm-2.16-2.68c-.44-.82-.73-1.77-1.07-2.58.7.58,1.55,1.15,2.22,1.82a7.17,7.17,0,0,1,1.9,2.75,1.73,1.73,0,0,0-.87.66h0A7.28,7.28,0,0,1,16.46,36.15Zm1.87,3.53h0a1.68,1.68,0,0,0,.3,1,7.21,7.21,0,0,1-3.18,1.09c-.94.13-2,.08-2.85.13.76-.45,1.56-1,2.41-1.44A7.3,7.3,0,0,1,18.33,39.68Zm-1.65-9.84a2.14,2.14,0,0,1,2.59,1.84,13.62,13.62,0,0,1-.4,2.55,5.08,5.08,0,0,0,.07,2.22s0,.12,0,.12-.06-.11-.06-.11a5.22,5.22,0,0,0-1.3-1.84,15.37,15.37,0,0,1-1.9-1.87A2,2,0,0,1,16.68,29.84Zm-5.34,3.67a2.13,2.13,0,0,1,3.19,0,15.69,15.69,0,0,1,1.22,2.33,5.26,5.26,0,0,0,1.4,1.78s.11.07.1.09-.12-.06-.12-.06A5.46,5.46,0,0,0,15,36.92a14.58,14.58,0,0,1-2.64-.46A2,2,0,0,1,11.34,33.51Zm-2,6.06a2,2,0,0,1,2.56-1.78A15.41,15.41,0,0,1,14.27,39a5.62,5.62,0,0,0,2.2.67s.13,0,.13,0-.13,0-.13,0a5.37,5.37,0,0,0-2.18.6,14.34,14.34,0,0,1-2.38,1.12A2.12,2.12,0,0,1,9.33,39.57Zm6.48,3.92a13.09,13.09,0,0,1-1.22,2.28,2.11,2.11,0,0,1-3.17-.08,1.94,1.94,0,0,1,.95-2.91A15.61,15.61,0,0,1,15,42.42a5.15,5.15,0,0,0,2.15-.7s.1-.07.12,0-.1.09-.1.09A4.76,4.76,0,0,0,15.81,43.49Zm.79-.19a6.83,6.83,0,0,1,2.07-2.53,1.73,1.73,0,0,0,.82.6,6.78,6.78,0,0,1-1.88,2.72,24.47,24.47,0,0,1-2,1.58A20.72,20.72,0,0,1,16.6,43.3Zm.19,6.26a2,2,0,0,1-1-2.94,14.13,14.13,0,0,1,1.87-1.8A4.88,4.88,0,0,0,18.94,43s0-.12.06-.11S19,43,19,43a4.75,4.75,0,0,0,0,2.2,13.83,13.83,0,0,1,.42,2.57A2,2,0,0,1,16.79,49.56Zm2.62-4.89a6.66,6.66,0,0,1,.12-3.29,1.74,1.74,0,0,0,1,0,6.94,6.94,0,0,1,.16,3.28,23.29,23.29,0,0,1-.64,2.46A22.21,22.21,0,0,1,19.41,44.67Zm4,5a2.12,2.12,0,0,1-2.59-1.83,14.28,14.28,0,0,1,.39-2.55,4.79,4.79,0,0,0-.07-2.22s0-.12,0-.13.06.12.06.12a5.14,5.14,0,0,0,1.31,1.84,14.69,14.69,0,0,1,1.9,1.87A2,2,0,0,1,23.41,49.67ZM28.74,46a2.12,2.12,0,0,1-3.18,0,15.06,15.06,0,0,1-1.23-2.32,5.26,5.26,0,0,0-1.4-1.78s-.11-.08-.09-.09.12.06.12.06a5.41,5.41,0,0,0,2.15.77,14.85,14.85,0,0,1,2.65.46A2,2,0,0,1,28.74,46Z" transform="translate(0 5.03)" fill="#ffe3a8"/><path d="M21.46,40.76h0a7.38,7.38,0,0,1,2.16,2.64c.44.82.72,1.77,1.07,2.58-.7-.58-1.55-1.15-2.23-1.82a7.25,7.25,0,0,1-1.89-2.75A1.77,1.77,0,0,0,21.46,40.76Z" transform="translate(0 5.03)" fill="url(#New_Gradient_Swatch_2-41)"/><path d="M21.45,38.83a7.21,7.21,0,0,1,3.18-1.09c.93-.13,1.95-.08,2.85-.13-.77.45-1.57,1-2.41,1.44a7.33,7.33,0,0,1-3.3.83h0A1.68,1.68,0,0,0,21.45,38.83Z" transform="translate(0 5.03)" fill="url(#New_Gradient_Swatch_2-42)"/><path d="M21.48,40.73a1.76,1.76,0,0,0,.19-.39,1.63,1.63,0,0,0,.08-.43h0a7.57,7.57,0,0,1,3.31,1,19.13,19.13,0,0,1,2.08,1.3,22.86,22.86,0,0,1-2.46-.2,7.42,7.42,0,0,1-3.21-1.22Z" transform="translate(0 5.03)" fill="url(#New_Gradient_Swatch_2-43)"/><path d="M23.5,36.26a6.74,6.74,0,0,1-2.08,2.53,1.65,1.65,0,0,0-.81-.6,6.84,6.84,0,0,1,1.87-2.72,22.46,22.46,0,0,1,2-1.57A22.55,22.55,0,0,1,23.5,36.26Z" transform="translate(0 5.03)" fill="url(#New_Gradient_Swatch_2-44)"/><path d="M20.69,34.89a6.67,6.67,0,0,1-.12,3.29,1.74,1.74,0,0,0-1,0,6.94,6.94,0,0,1-.16-3.28A23.29,23.29,0,0,1,20,32.43,22.21,22.21,0,0,1,20.69,34.89Z" transform="translate(0 5.03)" fill="url(#New_Gradient_Swatch_2-45)"/><path d="M18.63,38.88a2,2,0,0,0-.19.39,1.56,1.56,0,0,0-.08.42h0A7.5,7.5,0,0,1,15,38.75a22.81,22.81,0,0,1-2.08-1.3,18.68,18.68,0,0,1,2.46.2,7.42,7.42,0,0,1,3.21,1.21Z" transform="translate(0 5.03)" fill="url(#New_Gradient_Swatch_2-46)"/><path d="M16.47,36.19c-.43-.82-.72-1.77-1.06-2.58.69.59,1.54,1.16,2.21,1.82a7.2,7.2,0,0,1,1.9,2.76,1.77,1.77,0,0,0-.87.66h0A7.33,7.33,0,0,1,16.47,36.19Z" transform="translate(0 5.03)" fill="url(#New_Gradient_Swatch_2-47)"/><path d="M18.34,39.73h0a1.7,1.7,0,0,0,.3,1.05,7.22,7.22,0,0,1-3.18,1.08c-.93.13-2,.08-2.85.13.77-.45,1.57-1,2.41-1.43A7.2,7.2,0,0,1,18.34,39.73Z" transform="translate(0 5.03)" fill="url(#New_Gradient_Swatch_2-48)"/><path d="M16.61,43.34a6.83,6.83,0,0,1,2.08-2.53,1.6,1.6,0,0,0,.81.6,6.93,6.93,0,0,1-1.87,2.73,24.47,24.47,0,0,1-2,1.57A22.71,22.71,0,0,1,16.61,43.34Z" transform="translate(0 5.03)" fill="url(#New_Gradient_Swatch_2-49)"/><path d="M19.42,44.72a6.66,6.66,0,0,1,.12-3.29,1.74,1.74,0,0,0,1,0,7,7,0,0,1,.16,3.28,24.13,24.13,0,0,1-.64,2.47A22.81,22.81,0,0,1,19.42,44.72Z" transform="translate(0 5.03)" fill="url(#New_Gradient_Swatch_2-50)"/><path d="M30.78,39.93a2,2,0,0,1-2.56,1.77,14.86,14.86,0,0,1-2.38-1.21,5.34,5.34,0,0,0-2.2-.67.59.59,0,0,1-.13,0s.13,0,.13,0a5.25,5.25,0,0,0,2.17-.59,14.09,14.09,0,0,1,2.39-1.13A2.12,2.12,0,0,1,30.78,39.93Z" transform="translate(0 5.03)" fill="#f6bd00"/><path d="M24.3,36a13.21,13.21,0,0,1,1.22-2.29,2.12,2.12,0,0,1,3.17.08,2,2,0,0,1-1,2.91,14.78,14.78,0,0,1-2.64.36,5.24,5.24,0,0,0-2.15.7s-.11.07-.12.06.1-.09.1-.09A5,5,0,0,0,24.3,36Z" transform="translate(0 5.03)" fill="#f6bd00"/><path d="M23.32,29.93a2,2,0,0,1,1,2.94,14.11,14.11,0,0,1-1.87,1.8,4.84,4.84,0,0,0-1.29,1.8s0,.12-.06.11,0-.12,0-.12a4.9,4.9,0,0,0,0-2.2,13.29,13.29,0,0,1-.42-2.57A2,2,0,0,1,23.32,29.93Z" transform="translate(0 5.03)" fill="#f6bd00"/><path d="M16.7,29.82a2.12,2.12,0,0,1,2.59,1.83,13.72,13.72,0,0,1-.4,2.56A5,5,0,0,0,19,36.42s.05.12,0,.13-.06-.12-.06-.12a5.29,5.29,0,0,0-1.31-1.83,15.39,15.39,0,0,1-1.9-1.88A2,2,0,0,1,16.7,29.82Z" transform="translate(0 5.03)" fill="#f6bd00"/><path d="M11.36,33.48a2.13,2.13,0,0,1,3.19.05,15.07,15.07,0,0,1,1.22,2.32,5.28,5.28,0,0,0,1.4,1.78s.11.08.1.1-.12-.07-.12-.07A5.63,5.63,0,0,0,15,36.89a15.86,15.86,0,0,1-2.65-.45A2,2,0,0,1,11.36,33.48Z" transform="translate(0 5.03)" fill="#f6bd00"/><path d="M9.35,39.54a2,2,0,0,1,2.56-1.77A14.86,14.86,0,0,1,14.29,39a5.49,5.49,0,0,0,2.2.67s.13,0,.13,0-.13,0-.13,0a5.33,5.33,0,0,0-2.18.59,14.44,14.44,0,0,1-2.38,1.13A2.12,2.12,0,0,1,9.35,39.54Z" transform="translate(0 5.03)" fill="#f6bd00"/><path d="M15.83,43.46a13.58,13.58,0,0,1-1.22,2.29,2.12,2.12,0,0,1-3.17-.08,1.94,1.94,0,0,1,1-2.91A14.65,14.65,0,0,1,15,42.4a5.24,5.24,0,0,0,2.15-.7s.1-.07.12-.06-.1.09-.1.09A5,5,0,0,0,15.83,43.46Z" transform="translate(0 5.03)" fill="#f6bd00"/><path d="M16.81,49.54a2,2,0,0,1-1-2.95,14.78,14.78,0,0,1,1.87-1.8A4.94,4.94,0,0,0,19,43s0-.12.06-.12S19,43,19,43a5,5,0,0,0,0,2.2,13.29,13.29,0,0,1,.42,2.57A2,2,0,0,1,16.81,49.54Z" transform="translate(0 5.03)" fill="#f6bd00"/><path d="M23.43,49.65a2.12,2.12,0,0,1-2.59-1.84,13.62,13.62,0,0,1,.4-2.55,5,5,0,0,0-.07-2.21s-.05-.12,0-.13.06.12.06.12a5.39,5.39,0,0,0,1.31,1.83,14.72,14.72,0,0,1,1.9,1.88A2,2,0,0,1,23.43,49.65Z" transform="translate(0 5.03)" fill="#f6bd00"/><path d="M28.77,46a2.13,2.13,0,0,1-3.19,0,16.13,16.13,0,0,1-1.23-2.33A5.36,5.36,0,0,0,23,41.83s-.11-.07-.1-.09.12.07.12.07a5.58,5.58,0,0,0,2.15.76,14.85,14.85,0,0,1,2.65.46A2,2,0,0,1,28.77,46Z" transform="translate(0 5.03)" fill="#f6bd00"/><ellipse cx="4.32" cy="81.99" rx="2.25" ry="5.01" transform="translate(-68.66 49.41) rotate(-59.72)" fill="url(#New_Gradient_Swatch_2-51)"/><ellipse cx="13.3" cy="81.99" rx="5.01" ry="2.25" transform="translate(-39.52 22.91) rotate(-30.28)" fill="#ffe3a8"/><path d="M9.37,95.1V76.37H8.27V95.13C8.64,95.13,9,95.12,9.37,95.1Z" transform="translate(0 5.03)" fill="#ffe3a8"/><path d="M9.67,73.82a3.42,3.42,0,1,1,2.49-4.14A3.41,3.41,0,0,1,9.67,73.82Z" transform="translate(0 5.03)" fill="#f6bd00"/><path d="M13.17,69.4a4.47,4.47,0,1,0-3.26,5.42A4.47,4.47,0,0,0,13.17,69.4ZM9.66,73.8a3.42,3.42,0,1,1,2.48-4.14A3.42,3.42,0,0,1,9.66,73.8Z" transform="translate(0 5.03)" fill="url(#New_Gradient_Swatch_2-52)"/><path d="M10.09,76.76a1.4,1.4,0,0,0-1.26-1.15,1.41,1.41,0,0,0-1.22,1.18,1.18,1.18,0,0,0,1.26,1.39A1.19,1.19,0,0,0,10.09,76.76Z" transform="translate(0 5.03)" fill="#ffe3a8"/><path d="M13.23,75.06a1.4,1.4,0,0,0-1.67-.29,1.4,1.4,0,0,0-.4,1.65,1.19,1.19,0,0,0,1.81.5A1.18,1.18,0,0,0,13.23,75.06Z" transform="translate(0 5.03)" fill="#ffe3a8"/><path d="M15,71.93a1.41,1.41,0,0,0-1.57.66A1.44,1.44,0,0,0,14,74.2a1.25,1.25,0,1,0,1-2.27Z" transform="translate(0 5.03)" fill="#ffe3a8"/><path d="M14.72,68.36a1.43,1.43,0,0,0-1,1.41,1.4,1.4,0,0,0,1.35,1,1.25,1.25,0,1,0-.39-2.45Z" transform="translate(0 5.03)" fill="#ffe3a8"/><path d="M12.59,65.49a1.41,1.41,0,0,0,0,1.7,1.41,1.41,0,0,0,1.69.16,1.25,1.25,0,1,0-1.65-1.86Z" transform="translate(0 5.03)" fill="#ffe3a8"/><path d="M9.25,64.22a1.4,1.4,0,0,0,.88,1.46,1.41,1.41,0,0,0,1.51-.79,1.19,1.19,0,0,0-.81-1.69A1.2,1.2,0,0,0,9.25,64.22Z" transform="translate(0 5.03)" fill="#ffe3a8"/><path d="M5.75,65a1.42,1.42,0,0,0,1.53.75,1.44,1.44,0,0,0,.85-1.48,1.19,1.19,0,0,0-1.61-1A1.19,1.19,0,0,0,5.75,65Z" transform="translate(0 5.03)" fill="#ffe3a8"/><path d="M3.22,67.49a1.42,1.42,0,0,0,1.69-.2,1.44,1.44,0,0,0-.09-1.7,1.19,1.19,0,0,0-1.88,0A1.18,1.18,0,0,0,3.22,67.49Z" transform="translate(0 5.03)" fill="#ffe3a8"/><path d="M2.44,71A1.44,1.44,0,0,0,3.76,69.9a1.42,1.42,0,0,0-1-1.38A1.25,1.25,0,1,0,2.44,71Z" transform="translate(0 5.03)" fill="#ffe3a8"/><path d="M3.67,74.33a1.42,1.42,0,0,0,.53-1.62,1.41,1.41,0,0,0-1.59-.62,1.18,1.18,0,0,0-.74,1.72A1.18,1.18,0,0,0,3.67,74.33Z" transform="translate(0 5.03)" fill="#ffe3a8"/><path d="M6.52,76.49a1.41,1.41,0,0,0-.43-1.65,1.41,1.41,0,0,0-1.67.33A1.2,1.2,0,0,0,4.72,77,1.2,1.2,0,0,0,6.52,76.49Z" transform="translate(0 5.03)" fill="#ffe3a8"/><path d="M11.09,69.92a2.33,2.33,0,1,0-1.7,2.83A2.33,2.33,0,0,0,11.09,69.92ZM9.16,71.79a1.34,1.34,0,1,1,1-1.63A1.35,1.35,0,0,1,9.16,71.79Z" transform="translate(0 5.03)" fill="#ffe3a8"/><path d="M6.58,49.42S19.38,52,20.66,64.78A22.45,22.45,0,0,1,6.58,49.42Z" transform="translate(0 5.03)" fill="url(#New_Gradient_Swatch_2-53)"/><g clip-path="url(#clip-path-5)"><polygon points="20.97 70.34 23.94 67.22 8.74 50.31 5.77 53.42 20.97 70.34" fill="#ffe3a8"/></g><path d="M97.52,95.08V63.14H96.11V95.08l.35,0Z" transform="translate(0 5.03)" fill="#ffe3a8"/><circle cx="96.74" cy="60.78" r="3.48" fill="url(#New_Gradient_Swatch_2-54)"/><path d="M96.74,47.79a8,8,0,1,0,8,8A8,8,0,0,0,96.74,47.79Zm2.94,9.83a3.48,3.48,0,1,1-1.07-4.81A3.48,3.48,0,0,1,99.68,57.62Z" transform="translate(0 5.03)" fill="#ffe3a8"/><path d="M103.23,55.88A.66.66,0,1,0,103,55a.57.57,0,0,0-.09.33l-.89,0a5.36,5.36,0,0,0-.32-1.37l.81-.32a.52.52,0,0,0,.1.11.66.66,0,1,0-.2-.91.64.64,0,0,0-.06.54l-.76.29a5.91,5.91,0,0,0-.72-1.14l.66-.64a.65.65,0,0,0,.81-.24.66.66,0,0,0-1.11-.7.65.65,0,0,0,0,.75l-.61.6a5.07,5.07,0,0,0-1-.91l.54-.89a.66.66,0,0,0,.68-.28.66.66,0,0,0-1.11-.71.66.66,0,0,0,.15.86l-.52.87a4.93,4.93,0,0,0-1.17-.49l.15-.93a.61.61,0,0,0,.51-.29.65.65,0,1,0-.9.2l.09,0-.14.9a5.17,5.17,0,0,0-1.23-.15l-.15-1a.61.61,0,0,0,.32-.25.65.65,0,1,0-.9.2.71.71,0,0,0,.28.09l.14,1A5.45,5.45,0,0,0,95,50.8L94.6,50a1,1,0,0,0,.14-.15.66.66,0,0,0-.2-.9.65.65,0,1,0-.7,1.1.66.66,0,0,0,.49.09l.38.76a5.41,5.41,0,0,0-1.34.8l-.55-.64s0,0,0,0a.66.66,0,0,0-.2-.9.65.65,0,0,0-.91.2.66.66,0,0,0,.2.9.64.64,0,0,0,.64,0l.56.64a4.71,4.71,0,0,0-.88,1l-.77-.5a.64.64,0,0,0-.24-.79.65.65,0,1,0-.71,1.1.65.65,0,0,0,.77-.06l.79.51a5.41,5.41,0,0,0-.51,1.19l-.9-.26a.63.63,0,1,0-.09.32,0,0,0,0,0,0,0l.9.27a5.3,5.3,0,0,0-.14,1.53l-1,0a.66.66,0,0,0-.29-.42.65.65,0,1,0-.71,1.1.67.67,0,0,0,.91-.2,1.34,1.34,0,0,0,.07-.18l1,0a5.14,5.14,0,0,0,.32,1.34l-1,.31a.65.65,0,1,0,0,.68.61.61,0,0,0,.09-.39l1.06-.31a5.39,5.39,0,0,0,.63,1l-.82.56-.08-.07a.65.65,0,1,0,.2.9.63.63,0,0,0,0-.58l.85-.57a5.3,5.3,0,0,0,1.08,1l-.47.71a.65.65,0,0,0-.57,1.16.66.66,0,0,0,.9-.2.65.65,0,0,0-.08-.79L94,60.5a5.39,5.39,0,0,0,1.49.59l-.27.79a.64.64,0,1,0,.29.09l.28-.8a5.27,5.27,0,0,0,1.12.07l.07.92a.61.61,0,0,0-.36.27.65.65,0,1,0,.9-.2.54.54,0,0,0-.24-.09l-.06-.94a5.83,5.83,0,0,0,1.36-.31l.34.79a.52.52,0,0,0-.16.17.66.66,0,0,0,.2.9.67.67,0,0,0,.91-.2.66.66,0,0,0-.2-.9.61.61,0,0,0-.47-.09l-.33-.77a5.24,5.24,0,0,0,1.27-.83l.55.67,0,0a.65.65,0,1,0,.9-.2.64.64,0,0,0-.63,0l-.55-.67a5.1,5.1,0,0,0,.76-.9l.68.4a.64.64,0,0,0,.26.74.65.65,0,1,0-.11-1l-.67-.4a5.14,5.14,0,0,0,.55-1.31l.82.22a.65.65,0,0,0,.27.37.66.66,0,1,0-.2-.91.83.83,0,0,0-.08.22L102,57a5.46,5.46,0,0,0,.13-1.39l.91,0A.62.62,0,0,0,103.23,55.88Zm-8.36,2.8a3.48,3.48,0,1,1,4.81-1.06A3.47,3.47,0,0,1,94.87,58.68Z" transform="translate(0 5.03)" fill="#f6bd00"/><ellipse cx="92.22" cy="68" rx="2.25" ry="5.01" transform="translate(-12.99 118.39) rotate(-59.72)" fill="#ffe3a8"/><ellipse cx="91.94" cy="75.68" rx="2.25" ry="5.01" transform="translate(-19.77 121.95) rotate(-59.72)" fill="#ffe3a8"/><ellipse cx="101.34" cy="68" rx="5.01" ry="2.25" transform="translate(-20.46 65.39) rotate(-30.28)" fill="#ffe3a8"/><ellipse cx="101.62" cy="75.68" rx="5.01" ry="2.25" transform="translate(-24.29 66.58) rotate(-30.28)" fill="url(#New_Gradient_Swatch_2-55)"/><path d="M75.36,46.39h0c-16.91,14.71-17.59.06-17.59.06h0C57.78,46,58.59,32.07,75.36,46.39Z" transform="translate(0 5.03)" fill="url(#New_Gradient_Swatch_2-22)"/><path d="M75.08,46.36a25.62,25.62,0,0,0-4.38,0c-1.53,0-3.07,0-4.61,0l-4.73,0c-1.21,0-2.42.07-3.63.05h0c0-.45.82-14.4,17.58-.09H75.2Z" transform="translate(0 5.03)" fill="#ffe3a8"/><path d="M63.3,46.55l-.1-.13h.4l2.1,2.76,2.84,2.19-.1.06-.14.09,0,0-2.37-1.82.75,2.51v0h0l0,0-.07,0-.11,0h-.05l-.9-3Z" transform="translate(0 5.03)" fill="#f6bd00"/><path d="M59.43,46.48h.38L62,49.73l2.6,3.07,0,.06-.08,0h0l-.23,0h0l-2.13-2.51L62,52.82v.06l-.09,0h0l-.07,0-.08,0h0l.09-2.69-2.31-3.51Z" transform="translate(0 5.03)" fill="#f6bd00"/><path d="M67.11,46.55l-.17-.15h.47l1.74,1.68,2.38,1.43-.1.07-.06,0-.09.07h0l-1.81-1.09.49,1.91v0l0,0-.12.06-.08,0-.06,0-.6-2.3Z" transform="translate(0 5.03)" fill="#f6bd00"/><polygon points="70.95 51.37 73.3 53.15 73.11 53.4 70.43 51.38 70.56 51.38 70.95 51.37" fill="#f6bd00"/><polygon points="54.2 51.61 65.06 51.29 65.04 50.75 54.2 51.07 54.2 51.61" fill="#ffe3a8"/></g></g></svg>