<svg xmlns="http://www.w3.org/2000/svg" viewBox="0 0 112.94 105.32"><g id="Layer_2" data-name="Layer 2"><g id="Layer_1-2" data-name="Layer 1"><path d="M46,26.41a16.29,16.29,0,0,0-26.7,6.26L14.84,45.34A10.3,10.3,0,0,0,30.74,57l.11-.09A20.27,20.27,0,0,1,46.57,53.3a10.34,10.34,0,0,0,11-5.4,10.3,10.3,0,0,0-2-12.13Z"/><path d="M14.16,33.86A7.91,7.91,0,0,0,17.53,28a10.19,10.19,0,0,0-1.78-6.82,10.26,10.26,0,0,0-5.69-4.15,7.86,7.86,0,0,0-6.64,1c-3.84,2.6-4.55,8.27-1.59,12.63A9.57,9.57,0,0,0,11.66,35,7.46,7.46,0,0,0,14.16,33.86Z"/><path d="M25.83,22c5.28-1.23,8.42-7.12,7-13.14S26-1,20.72.23s-8.42,7.13-7,13.14S20.56,23.26,25.83,22Z"/><path d="M43,20.82h0a8.12,8.12,0,0,0,2.56-.19c3.84-.9,6.93-4.57,7.36-9.21A11,11,0,0,0,51,4.08,8.33,8.33,0,0,0,38.08,2.92,11,11,0,0,0,34.9,9.79C34.41,15.42,38,20.37,43,20.82Z"/><path d="M62.82,14.82h0c-4.27-1.83-9.44.61-11.52,5.44s-.3,10.27,4,12.1a7.71,7.71,0,0,0,4.83.4,10,10,0,0,0,6.69-5.84C68.86,22.1,67.07,16.67,62.82,14.82Z"/><path d="M91.44,83.19A16.28,16.28,0,0,0,70.69,65.26L57.81,69.07a10.3,10.3,0,0,0-.11,19.72l.14,0A20.23,20.23,0,0,1,70,99.43a10.44,10.44,0,0,0,2.56,3.37,10.83,10.83,0,0,0,1.92,1.31,10.31,10.31,0,0,0,12.15-1.84,10.16,10.16,0,0,0,2.88-5.79Z"/><path d="M66.71,61.78a7.9,7.9,0,0,0,6.69-.69A10.5,10.5,0,0,0,77.89,48.6a7.87,7.87,0,0,0-4.72-4.78C68.81,42.24,63.81,45,62,50A9.54,9.54,0,0,0,64.34,60.4,7.57,7.57,0,0,0,66.71,61.78Z"/><path d="M83.14,64.28c4.1,3.54,10.71,2.63,14.75-2s4-11.35-.11-14.89-10.71-2.63-14.75,2S79,60.73,83.14,64.28Z"/><path d="M94.18,77.45h0a8,8,0,0,0,1.65,2c3,2.58,7.78,2.93,11.78.55a10.93,10.93,0,0,0,4.84-5.83A8.56,8.56,0,0,0,111.8,67a8.47,8.47,0,0,0-6-4,11,11,0,0,0-7.43,1.46C93.52,67.35,91.64,73.18,94.18,77.45Z"/><path d="M110.68,90h0c-1-4.53-6-7.28-11.16-6.13S91,89.64,92,94.16a7.71,7.71,0,0,0,2.51,4.14,10,10,0,0,0,8.66,2C108.34,99.15,111.69,94.52,110.68,90Z"/></g></g></svg>